<svg xmlns="http://www.w3.org/2000/svg" viewBox="0 0 100 100"><linearGradient id="a" gradientUnits="userSpaceOnUse" x1="2.057" y1="49.659" x2="98.567" y2="49.659"><stop offset="0" stop-color="#b8b8b8"/><stop offset="1"/></linearGradient><circle cx="50.312" cy="49.659" r="48.255" opacity=".1" fill="url(#a)"/><circle cx="50.312" cy="49.659" r="36.251" fill="#0ec0ea"/><circle cx="36.543" cy="61.967" r=".817" fill="#fff"/><circle cx="67.824" cy="52.227" r=".817" fill="#fff"/><path d="M58.37 46.093h-1.255a.72.72 0 0 1-.719-.719v-.729a.72.72 0 0 1 .719-.719h1.39c.322 0 .584.262.584.584a.817.817 0 0 0 1.634 0 2.22 2.22 0 0 0-2.163-2.216v-.701a.817.817 0 0 0-1.634 0v.707a2.355 2.355 0 0 0-2.163 2.344v.729a2.356 2.356 0 0 0 2.353 2.353h1.255a.72.72 0 0 1 .719.719v.73a.72.72 0 0 1-.719.719h-1.39a.585.585 0 0 1-.584-.584.817.817 0 0 0-1.634 0 2.22 2.22 0 0 0 2.163 2.216v.701a.817.817 0 0 0 1.634 0v-.708a2.355 2.355 0 0 0 2.163-2.344v-.73a2.356 2.356 0 0 0-2.353-2.352z" fill="#fff"/><path d="M70.234 56.439a3.1 3.1 0 0 0-1.724-1.647 3.094 3.094 0 0 0-2.384.055l-.012.005-5.145 2.373a.817.817 0 1 0 .684 1.484l5.138-2.37a1.475 1.475 0 0 1 1.128-.024c.369.143.66.421.82.783.16.362.169.765.026 1.134-.143.369-.421.66-.783.82l-10.529 4.649a6.076 6.076 0 0 1-5.17-.117l-3.854-1.915a7.703 7.703 0 0 0-6.557-.149l-.049.022-2.857-6.47 3.972-1.754a7.925 7.925 0 0 1 5.964-.19l7.75 2.846a1.375 1.375 0 0 1 .822 1.726 1.37 1.37 0 0 1-1.732.853l-5.993-2.027a.816.816 0 1 0-.523 1.547l5.993 2.027a3.01 3.01 0 0 0 3.801-1.872 3.019 3.019 0 0 0-1.805-3.789l-7.75-2.846a9.777 9.777 0 0 0-1.589-.435v-4.515c0-4.452 3.622-8.074 8.074-8.074h2.983c4.452 0 8.074 3.622 8.074 8.074v2.129a.817.817 0 0 0 1.634 0v-2.129c0-4.715-3.379-8.655-7.842-9.527v-2.46l2.064-3.53a.816.816 0 0 0-.368-1.156l-2.531-1.15a.816.816 0 0 0-.614-.025l-1.878.676-1.666-.666a.82.82 0 0 0-.597-.004l-2.649 1.022a.819.819 0 0 0-.42 1.158l2.032 3.665V37.1c-4.506.838-7.929 4.798-7.929 9.544v4.358a9.563 9.563 0 0 0-3.964.821l-4.002 1.767a2.006 2.006 0 0 0-.949-.76 2.01 2.01 0 0 0-1.547.035l-5.17 2.265a.817.817 0 0 0-.489.748v13.873a.817.817 0 0 0 1.185.729l10.036-5.07c.484-.22.856-.614 1.048-1.111.157-.406.18-.841.069-1.254l.071-.031a6.072 6.072 0 0 1 5.17.117l3.854 1.915a7.703 7.703 0 0 0 6.557.148l10.529-4.649c.761-.336 1.346-.948 1.647-1.724s.282-1.621-.054-2.382zM59.165 36.938h-3.36v-1.684h3.36v1.684zm-5.142-5.927l1.474-.569 1.656.662a.816.816 0 0 0 .58.01l1.858-.669 1.405.638-1.482 2.535H55.47l-1.447-2.607zm-13.36 32.915l-.038.018-8.868 4.48v-3.31l2.296-1.128a.816.816 0 1 0-.72-1.466l-1.576.774v-6.881l4.683-2.052a.388.388 0 0 1 .515.199l.187.424 3.72 8.426a.39.39 0 0 1-.199.516z" fill="#fff"/></svg>