<svg xmlns="http://www.w3.org/2000/svg" viewBox="0 0 100 100"><linearGradient id="a" gradientUnits="userSpaceOnUse" x1="1.85" y1="50.3" x2="98.359" y2="50.3"><stop offset="0" stop-color="#b8b8b8"/><stop offset="1"/></linearGradient><circle cx="50.104" cy="50.3" r="48.255" opacity=".1" fill="url(#a)"/><circle cx="50.104" cy="50.3" r="36.251" fill="#f15e6d"/><path d="M69.005 32.457h-2.48V29.95a.775.775 0 0 0-1.55 0v2.962l-3.238 3.247a17.596 17.596 0 0 0-11.91-4.603c-4.732 0-9.18 1.843-12.526 5.188-3.346 3.346-5.188 7.794-5.188 12.526s1.843 9.18 5.188 12.526c.52.52 1.068 1.004 1.638 1.451l-4.266 4.266a.776.776 0 0 0 1.096 1.096l4.45-4.45a17.591 17.591 0 0 0 9.608 2.826c3.478 0 6.802-.997 9.649-2.853l4.477 4.477a.772.772 0 0 0 1.096 0 .775.775 0 0 0 0-1.096l-4.297-4.297a17.988 17.988 0 0 0 1.6-1.42A17.597 17.597 0 0 0 67.54 49.27c0-2.695-.59-5.283-1.753-7.692a.775.775 0 0 0-1.395.673 16.014 16.014 0 0 1 1.599 7.019c0 8.913-7.251 16.165-16.165 16.165S33.662 58.184 33.662 49.27c0-8.913 7.251-16.165 16.165-16.165a16.06 16.06 0 0 1 10.816 4.151l-2.719 2.726a12.236 12.236 0 0 0-8.097-3.034c-6.794 0-12.322 5.527-12.322 12.322s5.528 12.322 12.322 12.322 12.322-5.527 12.322-12.322c0-1.096-.144-2.183-.428-3.231a12.328 12.328 0 0 0-2.695-4.967l3.275-3.284.003-.003.003-.003 3.766-3.776h2.933a.775.775 0 1 0-.001-1.549zm-8.779 13.988c.248.916.374 1.867.374 2.825 0 5.94-4.832 10.772-10.772 10.772S39.055 55.21 39.055 49.27s4.832-10.772 10.772-10.772a10.7 10.7 0 0 1 7.001 2.584l-3.198 3.207A6.237 6.237 0 0 0 49.828 43c-3.458 0-6.271 2.813-6.271 6.271s2.813 6.271 6.271 6.271 6.271-2.813 6.271-6.271a6.237 6.237 0 0 0-1.363-3.896l3.194-3.203a10.777 10.777 0 0 1 2.296 4.273zm-10.842 3.198a.77.77 0 0 0 1.095-.002l3.153-3.162c.575.782.916 1.747.916 2.791 0 2.603-2.118 4.721-4.721 4.721s-4.721-2.118-4.721-4.721a4.727 4.727 0 0 1 4.721-4.721c1.002 0 1.931.315 2.696.849l-3.141 3.15a.774.774 0 0 0 .002 1.095z" fill="#fff"/><circle cx="63.59" cy="39.527" r=".775" fill="#fff"/></svg>