<svg xmlns="http://www.w3.org/2000/svg" viewBox="0 0 100 100"><path d="M69.005 32.457h-2.48V29.95a.775.775 0 0 0-1.55 0v2.962l-3.238 3.247a17.596 17.596 0 0 0-11.91-4.603c-4.732 0-9.18 1.843-12.526 5.188-3.346 3.346-5.188 7.794-5.188 12.526s1.843 9.18 5.188 12.526c.52.52 1.068 1.004 1.638 1.451l-4.266 4.266a.776.776 0 0 0 1.096 1.096l4.45-4.45a17.591 17.591 0 0 0 9.608 2.826c3.478 0 6.802-.997 9.649-2.853l4.477 4.477a.772.772 0 0 0 1.096 0 .775.775 0 0 0 0-1.096l-4.297-4.297a17.988 17.988 0 0 0 1.6-1.42A17.597 17.597 0 0 0 67.54 49.27c0-2.695-.59-5.283-1.753-7.692a.775.775 0 0 0-1.395.673 16.014 16.014 0 0 1 1.599 7.019c0 8.913-7.251 16.165-16.165 16.165S33.662 58.184 33.662 49.27c0-8.913 7.251-16.165 16.165-16.165a16.06 16.06 0 0 1 10.816 4.151l-2.719 2.726a12.236 12.236 0 0 0-8.097-3.034c-6.794 0-12.322 5.527-12.322 12.322s5.528 12.322 12.322 12.322 12.322-5.527 12.322-12.322c0-1.096-.144-2.183-.428-3.231a12.328 12.328 0 0 0-2.695-4.967l3.275-3.284.003-.003.003-.003 3.766-3.776h2.933a.775.775 0 1 0-.001-1.549zm-8.779 13.988c.248.916.374 1.867.374 2.825 0 5.94-4.832 10.772-10.772 10.772S39.055 55.21 39.055 49.27s4.832-10.772 10.772-10.772a10.7 10.7 0 0 1 7.001 2.584l-3.198 3.207A6.237 6.237 0 0 0 49.828 43c-3.458 0-6.271 2.813-6.271 6.271s2.813 6.271 6.271 6.271 6.271-2.813 6.271-6.271a6.237 6.237 0 0 0-1.363-3.896l3.194-3.203a10.777 10.777 0 0 1 2.296 4.273zm-10.842 3.198a.77.77 0 0 0 1.095-.002l3.153-3.162c.575.782.916 1.747.916 2.791 0 2.603-2.118 4.721-4.721 4.721s-4.721-2.118-4.721-4.721a4.727 4.727 0 0 1 4.721-4.721c1.002 0 1.931.315 2.696.849l-3.141 3.15a.774.774 0 0 0 .002 1.095z" fill="#fff"/><circle cx="63.59" cy="39.527" r=".775" fill="#fff"/><linearGradient id="a" gradientUnits="userSpaceOnUse" x1="1.579" y1="49.621" x2="98.088" y2="49.621"><stop offset="0" stop-color="#b8b8b8"/><stop offset="1"/></linearGradient><circle cx="49.834" cy="49.621" r="48.255" opacity=".1" fill="url(#a)"/><circle cx="49.834" cy="49.621" r="36.251" fill="#42bead"/><g fill="#fff"><circle cx="32.62" cy="67.013" r=".78"/><circle cx="52.549" cy="47.224" r=".779"/><path d="M60.402 36.382c-.885 0-1.718.345-2.344.971a3.318 3.318 0 0 0 0 4.687 3.305 3.305 0 0 0 2.344.969c.849 0 1.698-.323 2.344-.969a3.318 3.318 0 0 0 0-4.687 3.288 3.288 0 0 0-2.344-.971zm1.243 4.556a1.76 1.76 0 0 1-2.485 0 1.76 1.76 0 0 1 1.242-3 1.758 1.758 0 0 1 1.243 3zM41.566 60.11a.778.778 0 0 0-1.044.35l-.927 1.863a2.569 2.569 0 0 1-2.117 1.413l-1.079.074a.461.461 0 0 1-.492-.492l.074-1.079a2.569 2.569 0 0 1 1.413-2.117l1.863-.927a.778.778 0 1 0-.694-1.394l-1.863.927a4.136 4.136 0 0 0-2.273 3.405l-.074 1.079a2.015 2.015 0 0 0 2.152 2.151l1.079-.074a4.132 4.132 0 0 0 3.405-2.273l.927-1.863a.777.777 0 0 0-.35-1.043z"/><path d="M71.013 28.832a1.804 1.804 0 0 0-1.38-.515l-.725.046a23.492 23.492 0 0 0-16.692 8.61l-1.707 2.101-4.466-.131h-.023a13.174 13.174 0 0 0-9.377 3.884l-4.574 4.574a.777.777 0 0 0 .511 1.328l9.683.498-.395.486a.78.78 0 0 0-.08.863c.152.279.311.553.477.823l-2.296 2.726a.778.778 0 0 0-.108.835 10.195 10.195 0 0 0 1.979 2.83 10.196 10.196 0 0 0 2.889 2.038.781.781 0 0 0 .824-.099 148.36 148.36 0 0 0 1.617-1.338c.393-.328.795-.664 1.171-.973.224.135.452.266.682.391a.77.77 0 0 0 .849-.069l.531-.412.5 9.724a.78.78 0 0 0 1.328.511l4.574-4.574a13.174 13.174 0 0 0 3.884-9.377v-4.265l1.805-1.4a23.403 23.403 0 0 0 9.037-17.363l.019-.379a1.808 1.808 0 0 0-.537-1.373zM34.409 47.264l3.336-3.336a11.628 11.628 0 0 1 8.264-3.428l3.264.096-5.795 7.134-9.069-.466zm11.762 9.932c-.406.339-.823.687-1.21 1.005a8.596 8.596 0 0 1-2.016-1.507 8.585 8.585 0 0 1-1.453-1.959l1.681-1.996a18.004 18.004 0 0 0 1.666 1.933l.001.001v.001l.001.001a17.985 17.985 0 0 0 2.144 1.843l-.814.678zm12.96-3.584c0 3.126-1.217 6.065-3.428 8.276l-3.336 3.336-.465-9.059 7.229-5.61v3.057zm10.844-23.105a21.844 21.844 0 0 1-8.436 16.209l-12.213 9.477a16.53 16.53 0 0 1-2.821-2.082l4.117-4.117a.779.779 0 0 0-1.101-1.101l-4.113 4.113a16.45 16.45 0 0 1-1.996-2.723l10.013-12.328a21.933 21.933 0 0 1 15.583-8.037l.725-.046a.243.243 0 0 1 .188.07.243.243 0 0 1 .073.187l-.019.378z"/></g></svg>