<svg xmlns="http://www.w3.org/2000/svg" viewBox="0 0 100 100"><linearGradient id="a" gradientUnits="userSpaceOnUse" x1="1.787" y1="49.979" x2="98.296" y2="49.979"><stop offset="0" stop-color="#b8b8b8"/><stop offset="1"/></linearGradient><circle cx="50.041" cy="49.979" r="48.255" opacity=".1" fill="url(#a)"/><circle cx="50.041" cy="49.979" r="36.251" fill="#4b556f"/><path d="M54.976 38.261a8.285 8.285 0 0 0-5.977-2.402 8.295 8.295 0 0 0-5.759 2.434 8.291 8.291 0 0 0-2.464 5.747 8.346 8.346 0 0 0 2.736 6.341 3.289 3.289 0 0 1 1.072 2.432v1.108c0 .715.338 1.352.861 1.761v2.542c0 1.158.942 2.1 2.1 2.1h3.145c1.158 0 2.1-.942 2.1-2.1v-2.542a2.23 2.23 0 0 0 .861-1.761v-1.108c0-.925.395-1.816 1.085-2.444a8.361 8.361 0 0 0 2.725-6.167 8.277 8.277 0 0 0-2.485-5.941zm-4.285 20.396h-3.145a.434.434 0 0 1-.434-.434v-2.068h4.012v2.068a.433.433 0 0 1-.433.434zm2.923-9.519a4.985 4.985 0 0 0-1.628 3.675v1.108a.569.569 0 0 1-.568.568h-4.6a.569.569 0 0 1-.568-.568v-1.108c0-1.396-.59-2.733-1.618-3.666a6.684 6.684 0 0 1-2.19-5.075c.068-3.56 3.019-6.497 6.58-6.546l.096-.001c1.767 0 3.428.681 4.687 1.923a6.627 6.627 0 0 1 1.989 4.754 6.688 6.688 0 0 1-2.18 4.936z" fill="#fff"/><path d="M65.626 52.171l-2.588-4.728v-3.241c0-7.707-6.27-13.978-13.978-13.978s-13.978 6.27-13.978 13.978v2.4c0 2.982.896 5.834 2.595 8.267v6.88a.833.833 0 0 0 1.666 0v-7.147a.838.838 0 0 0-.159-.49 12.696 12.696 0 0 1-2.436-7.511v-2.4c0-6.788 5.523-12.311 12.311-12.311S61.37 37.413 61.37 44.201v3.454c0 .14.035.277.102.4l2.691 4.915a.808.808 0 0 1-.015.814.807.807 0 0 1-.705.401h-.004l-1.232-.006a.833.833 0 0 0-.837.834v3.719a3.608 3.608 0 0 1-3.604 3.604h-2.501a2.062 2.062 0 0 0-2.059 2.059v6.369L41.88 65.673a.834.834 0 0 0-.684 1.52l12.502 5.619a.835.835 0 0 0 1.176-.761v-7.657c0-.216.176-.392.392-.392h2.501a5.276 5.276 0 0 0 5.27-5.27V55.85l.395.002h.012c.885 0 1.683-.453 2.137-1.214a2.461 2.461 0 0 0 .045-2.467z" fill="#fff"/><circle cx="38.586" cy="65.011" r=".833" fill="#fff"/></svg>