<svg xmlns="http://www.w3.org/2000/svg" width="44" height="44" viewBox="0 0 44 44">
  <metadata><?xpacket begin="﻿" id="W5M0MpCehiHzreSzNTczkc9d"?>
<x:xmpmeta xmlns:x="adobe:ns:meta/" x:xmptk="Adobe XMP Core 5.6-c138 79.159824, 2016/09/14-01:09:01        ">
   <rdf:RDF xmlns:rdf="http://www.w3.org/1999/02/22-rdf-syntax-ns#">
      <rdf:Description rdf:about=""/>
   </rdf:RDF>
</x:xmpmeta>
                                                                                                    
                                                                                                    
                                                                                                    
                                                                                                    
                                                                                                    
                                                                                                    
                                                                                                    
                                                                                                    
                                                                                                    
                                                                                                    
                                                                                                    
                                                                                                    
                                                                                                    
                                                                                                    
                                                                                                    
                                                                                                    
                                                                                                    
                                                                                                    
                                                                                                    
                                                                                                    
                           
<?xpacket end="w"?></metadata>
<defs>
    <style>
      .cls-1 {
        fill: #20b3e3;
        fill-rule: evenodd;
      }
    </style>
  </defs>
  <path class="cls-1" d="M44,27.133a0.733,0.733,0,0,0-.733-0.733H35.933V2.2A0.733,0.733,0,0,0,35.2,1.467H33V0H31.533V1.467H30.067V0H28.6V1.467H15.4V0H13.933V1.467H12.467V0H11V1.467H8.8a0.733,0.733,0,0,0-.733.733V26.4H0.733A0.733,0.733,0,0,0,0,27.133a6.61,6.61,0,0,0,4.693,6.316,3.117,3.117,0,0,0-1.027,2.31v0.159a3.113,3.113,0,0,0,1.73,2.8l8.551,4.274A9.579,9.579,0,0,0,18.211,44H43.267A0.733,0.733,0,0,0,44,43.267V33a0.733,0.733,0,0,0-.733-0.733H41.539A6.587,6.587,0,0,0,44,27.133ZM9.533,2.933H34.467V26.4H33V22.733A0.733,0.733,0,0,0,32.267,22H29.333a0.733,0.733,0,0,0-.733.733V26.4H27.133V22.733A0.733,0.733,0,0,0,26.4,22H17.6a0.733,0.733,0,0,0-.733.733V26.4H15.4V22.733A0.733,0.733,0,0,0,14.667,22H11.733a0.733,0.733,0,0,0-.733.733V26.4H9.533V2.933Zm22,23.467H30.067V23.467h1.467V26.4Zm-13.2,0V23.467h2.933V26.4H18.333Zm4.4-2.933h2.933V26.4H22.733V23.467Zm-8.8,2.933H12.467V23.467h1.467V26.4Zm0.836,9.568L9.889,33.733h5.186A2.868,2.868,0,0,0,14.77,35.968ZM14.6,41.681l-8.55-4.275a1.654,1.654,0,0,1-.919-1.488V35.76a1.661,1.661,0,0,1,2.356-1.513l8.339,3.819a0.724,0.724,0,0,0,.305.067h7.333a0.733,0.733,0,1,0,0-1.467H17.6a1.467,1.467,0,0,1,0-2.933h5.623a0.736,0.736,0,0,0,.351-0.09l0.186-.1A9.787,9.787,0,0,1,33,33.436v9.1H18.211A8.107,8.107,0,0,1,14.6,41.681Zm27.93-7.948v8.8H34.467v-8.8h8.067Zm-8.619-1.467a11.243,11.243,0,0,0-10.853-.013l-5.461.013H6.6a5.142,5.142,0,0,1-5.082-4.4H42.482a5.142,5.142,0,0,1-5.082,4.4H33.914ZM35.933,39.6H37.4v1.467H35.933V39.6ZM23.467,14.667H26.4a0.733,0.733,0,0,0,.733-0.733V11a0.733,0.733,0,0,0-.733-0.733H23.467a0.733,0.733,0,0,0-.733.733v2.933A0.733,0.733,0,0,0,23.467,14.667ZM24.2,11.733h1.467V13.2H24.2V11.733Zm5.133,2.933h2.933A0.733,0.733,0,0,0,33,13.933V11a0.733,0.733,0,0,0-.733-0.733H29.333A0.733,0.733,0,0,0,28.6,11v2.933A0.733,0.733,0,0,0,29.333,14.667Zm0.733-2.933h1.467V13.2H30.067V11.733ZM17.6,14.667h2.933a0.733,0.733,0,0,0,.733-0.733V11a0.733,0.733,0,0,0-.733-0.733H17.6a0.733,0.733,0,0,0-.733.733v2.933A0.733,0.733,0,0,0,17.6,14.667Zm0.733-2.933H19.8V13.2H18.333V11.733Zm5.133,8.8H26.4a0.733,0.733,0,0,0,.733-0.733V16.867a0.733,0.733,0,0,0-.733-0.733H23.467a0.733,0.733,0,0,0-.733.733V19.8A0.733,0.733,0,0,0,23.467,20.533ZM24.2,17.6h1.467v1.467H24.2V17.6Zm5.133,2.933h2.933A0.733,0.733,0,0,0,33,19.8V16.867a0.733,0.733,0,0,0-.733-0.733H29.333a0.733,0.733,0,0,0-.733.733V19.8A0.733,0.733,0,0,0,29.333,20.533ZM30.067,17.6h1.467v1.467H30.067V17.6ZM17.6,20.533h2.933a0.733,0.733,0,0,0,.733-0.733V16.867a0.733,0.733,0,0,0-.733-0.733H17.6a0.733,0.733,0,0,0-.733.733V19.8A0.733,0.733,0,0,0,17.6,20.533ZM18.333,17.6H19.8v1.467H18.333V17.6Zm-6.6-2.933h2.933a0.733,0.733,0,0,0,.733-0.733V11a0.733,0.733,0,0,0-.733-0.733H11.733A0.733,0.733,0,0,0,11,11v2.933A0.733,0.733,0,0,0,11.733,14.667Zm0.733-2.933h1.467V13.2H12.467V11.733Zm11-2.933H26.4a0.733,0.733,0,0,0,.733-0.733V5.133A0.733,0.733,0,0,0,26.4,4.4H23.467a0.733,0.733,0,0,0-.733.733V8.067A0.733,0.733,0,0,0,23.467,8.8ZM24.2,5.867h1.467V7.333H24.2V5.867ZM29.333,8.8h2.933A0.733,0.733,0,0,0,33,8.067V5.133A0.733,0.733,0,0,0,32.267,4.4H29.333a0.733,0.733,0,0,0-.733.733V8.067A0.733,0.733,0,0,0,29.333,8.8Zm0.733-2.933h1.467V7.333H30.067V5.867ZM17.6,8.8h2.933a0.733,0.733,0,0,0,.733-0.733V5.133A0.733,0.733,0,0,0,20.533,4.4H17.6a0.733,0.733,0,0,0-.733.733V8.067A0.733,0.733,0,0,0,17.6,8.8Zm0.733-2.933H19.8V7.333H18.333V5.867ZM11.733,8.8h2.933A0.733,0.733,0,0,0,15.4,8.067V5.133A0.733,0.733,0,0,0,14.667,4.4H11.733A0.733,0.733,0,0,0,11,5.133V8.067A0.733,0.733,0,0,0,11.733,8.8Zm0.733-2.933h1.467V7.333H12.467V5.867ZM11.733,20.533h2.933A0.733,0.733,0,0,0,15.4,19.8V16.867a0.733,0.733,0,0,0-.733-0.733H11.733a0.733,0.733,0,0,0-.733.733V19.8A0.733,0.733,0,0,0,11.733,20.533ZM12.467,17.6h1.467v1.467H12.467V17.6Z"/>
</svg>
