<svg xmlns="http://www.w3.org/2000/svg" width="64" height="65" viewBox="0 0 64 65">
  <metadata><?xpacket begin="﻿" id="W5M0MpCehiHzreSzNTczkc9d"?>
<x:xmpmeta xmlns:x="adobe:ns:meta/" x:xmptk="Adobe XMP Core 5.6-c138 79.159824, 2016/09/14-01:09:01        ">
   <rdf:RDF xmlns:rdf="http://www.w3.org/1999/02/22-rdf-syntax-ns#">
      <rdf:Description rdf:about=""/>
   </rdf:RDF>
</x:xmpmeta>
                                                                                                    
                                                                                                    
                                                                                                    
                                                                                                    
                                                                                                    
                                                                                                    
                                                                                                    
                                                                                                    
                                                                                                    
                                                                                                    
                                                                                                    
                                                                                                    
                                                                                                    
                                                                                                    
                                                                                                    
                                                                                                    
                                                                                                    
                                                                                                    
                                                                                                    
                                                                                                    
                           
<?xpacket end="w"?></metadata>
<defs>
    <style>
      .cls-1 {
        fill: #fff;
        fill-rule: evenodd;
      }
    </style>
  </defs>
  <path class="cls-1" d="M63.681,28.179L52.632,15.653a1.266,1.266,0,0,0-.949-0.429H12.291a1.266,1.266,0,0,0-.949.429L0.293,28.179a1.27,1.27,0,0,0,.121,1.8l0.007,0.009L31.039,64.573a1.265,1.265,0,0,0,1.9,0L63.552,29.989l0.007-.009A1.27,1.27,0,0,0,63.681,28.179ZM49.436,17.763l-5.631,9.1-9.024-9.1H49.436Zm-8.32,9.987H22.857l9.13-9.2ZM29.193,17.763l-9.024,9.1-5.631-9.1H29.193Zm-17.1.87,5.644,9.117H4.053ZM4.074,30.289H19.048l10.344,28.6ZM34.628,58.834l7.227-19.6a1.267,1.267,0,1,0-2.377-.88L32,58.64,21.744,30.289H59.9ZM46.235,27.75l5.644-9.117L59.92,27.75H46.235ZM31.987,0A1.268,1.268,0,0,0,30.72,1.27v6.54a1.267,1.267,0,1,0,2.534,0V1.27A1.268,1.268,0,0,0,31.987,0ZM43.525,5.018a1.266,1.266,0,0,0-1.792,0L37.117,9.642a1.268,1.268,0,1,0,1.792,1.8l4.615-4.624A1.271,1.271,0,0,0,43.525,5.018ZM26.609,9.642L21.994,5.018a1.268,1.268,0,0,0-1.792,1.8l4.615,4.624A1.268,1.268,0,0,0,26.609,9.642ZM42.3,32.8a1.27,1.27,0,1,1-1.267,1.27A1.268,1.268,0,0,1,42.3,32.8Z"/>
</svg>
