<svg xmlns="http://www.w3.org/2000/svg" width="58" height="58" viewBox="0 0 58 58">
  <metadata><?xpacket begin="﻿" id="W5M0MpCehiHzreSzNTczkc9d"?>
<x:xmpmeta xmlns:x="adobe:ns:meta/" x:xmptk="Adobe XMP Core 5.6-c138 79.159824, 2016/09/14-01:09:01        ">
   <rdf:RDF xmlns:rdf="http://www.w3.org/1999/02/22-rdf-syntax-ns#">
      <rdf:Description rdf:about=""/>
   </rdf:RDF>
</x:xmpmeta>
                                                                                                    
                                                                                                    
                                                                                                    
                                                                                                    
                                                                                                    
                                                                                                    
                                                                                                    
                                                                                                    
                                                                                                    
                                                                                                    
                                                                                                    
                                                                                                    
                                                                                                    
                                                                                                    
                                                                                                    
                                                                                                    
                                                                                                    
                                                                                                    
                                                                                                    
                                                                                                    
                           
<?xpacket end="w"?></metadata>
<defs>
    <style>
      .cls-1 {
        fill: #fff;
        fill-rule: evenodd;
      }
    </style>
  </defs>
  <path class="cls-1" d="M56.792,55.583H1.208a1.208,1.208,0,1,0,0,2.417H56.792A1.208,1.208,0,1,0,56.792,55.583Zm-45.916-14.5H3.625a1.209,1.209,0,0,0-1.208,1.208v14.5A1.209,1.209,0,0,0,3.625,58h7.25a1.209,1.209,0,0,0,1.208-1.208v-14.5A1.209,1.209,0,0,0,10.875,41.083Zm-1.208,14.5H4.833V43.5H9.667V55.583h0ZM25.375,29h-7.25a1.209,1.209,0,0,0-1.208,1.208V56.792A1.209,1.209,0,0,0,18.125,58h7.25a1.209,1.209,0,0,0,1.208-1.208V30.208A1.209,1.209,0,0,0,25.375,29ZM24.167,55.583H19.333V31.417h4.833V55.583h0Zm15.708-21.75h-7.25a1.209,1.209,0,0,0-1.208,1.208v21.75A1.209,1.209,0,0,0,32.625,58h7.25a1.209,1.209,0,0,0,1.208-1.208V35.042A1.209,1.209,0,0,0,39.875,33.833Zm-1.208,21.75H33.833V36.25h4.833V55.583Zm15.708-36.25h-7.25a1.209,1.209,0,0,0-1.208,1.208v36.25A1.209,1.209,0,0,0,47.125,58h7.25a1.209,1.209,0,0,0,1.208-1.208V20.542A1.209,1.209,0,0,0,54.375,19.333Zm-1.208,36.25H48.333V21.75h4.833V55.583ZM7.25,21.75a4.833,4.833,0,1,0,4.833,4.833A4.838,4.838,0,0,0,7.25,21.75Zm0,7.25a2.417,2.417,0,1,1,2.417-2.417A2.419,2.419,0,0,1,7.25,29ZM21.75,9.667A4.833,4.833,0,1,0,26.583,14.5,4.838,4.838,0,0,0,21.75,9.667Zm0,7.25A2.417,2.417,0,1,1,24.167,14.5,2.419,2.419,0,0,1,21.75,16.917ZM36.25,14.5a4.833,4.833,0,1,0,4.833,4.834A4.838,4.838,0,0,0,36.25,14.5Zm0,7.25a2.417,2.417,0,1,1,2.417-2.417A2.419,2.419,0,0,1,36.25,21.75ZM50.75,0a4.833,4.833,0,1,0,4.833,4.834A4.838,4.838,0,0,0,50.75,0Zm0,7.25a2.417,2.417,0,1,1,2.417-2.417A2.419,2.419,0,0,1,50.75,7.25Zm-1.706-.711a1.209,1.209,0,0,0-1.709,0l-9.377,9.377a1.208,1.208,0,0,0,1.709,1.709l9.377-9.377A1.209,1.209,0,0,0,49.044,6.539ZM33.328,16.545l-7.762-2.214a1.209,1.209,0,0,0-.662,2.325l7.762,2.214a1.224,1.224,0,0,0,.331.046A1.208,1.208,0,0,0,33.328,16.545Zm-13.463-.539a1.209,1.209,0,0,0-1.7-.193L9.058,23.077a1.208,1.208,0,0,0,.754,2.153,1.219,1.219,0,0,0,.752-0.261L19.674,17.7A1.207,1.207,0,0,0,19.865,16.006Z"/>
</svg>
