<svg xmlns="http://www.w3.org/2000/svg" width="40" height="40" viewBox="0 0 40 40">
  <metadata><?xpacket begin="﻿" id="W5M0MpCehiHzreSzNTczkc9d"?>
<x:xmpmeta xmlns:x="adobe:ns:meta/" x:xmptk="Adobe XMP Core 5.6-c138 79.159824, 2016/09/14-01:09:01        ">
   <rdf:RDF xmlns:rdf="http://www.w3.org/1999/02/22-rdf-syntax-ns#">
      <rdf:Description rdf:about=""/>
   </rdf:RDF>
</x:xmpmeta>
                                                                                                    
                                                                                                    
                                                                                                    
                                                                                                    
                                                                                                    
                                                                                                    
                                                                                                    
                                                                                                    
                                                                                                    
                                                                                                    
                                                                                                    
                                                                                                    
                                                                                                    
                                                                                                    
                                                                                                    
                                                                                                    
                                                                                                    
                                                                                                    
                                                                                                    
                                                                                                    
                           
<?xpacket end="w"?></metadata>
<defs>
    <style>
      .cls-1 {
        fill: #00a8df;
        fill-rule: evenodd;
      }
    </style>
  </defs>
  <path class="cls-1" d="M20.563,0.229a0.781,0.781,0,0,0-1.334.552A0.781,0.781,0,1,0,20.563.229ZM39.771,18.667L31.719,10.61V5.781a1.564,1.564,0,0,0-1.562-1.562H28.594V0.781A0.781,0.781,0,0,0,27.813,0h-4.87a0.781,0.781,0,1,0,0,1.562h4.089V4.219H12.969V1.562h4.115a0.781,0.781,0,0,0,0-1.562h-4.9a0.781,0.781,0,0,0-.781.781V4.219H9.844A1.564,1.564,0,0,0,8.281,5.781V34.219H6.562A0.781,0.781,0,0,0,5.781,35v3.438H1.562V20.781h5a0.781,0.781,0,1,0,0-1.562H0.781A0.781,0.781,0,0,0,0,20V39.219A0.781,0.781,0,0,0,.781,40H39.219A0.781,0.781,0,0,0,40,39.219v-20A0.781,0.781,0,0,0,39.771,18.667ZM24.427,5.781h5.729v5.937H24.427V5.781Zm0,7.5h5.729v5.938H24.427V13.281Zm0,7.5h5.729v5.938H24.427V20.781Zm0,7.5h5.729v5.938H24.427V28.281Zm-7.292-22.5h5.729v5.937H17.135V5.781Zm0,7.5h5.729v5.938H17.135V13.281Zm0,7.5h5.729v5.938H17.135V20.781Zm0,7.5h5.729v5.938H17.135V28.281ZM9.844,5.781h5.729v5.937H9.844V5.781Zm0,7.5h5.729v5.938H9.844V13.281Zm0,7.5h5.729v5.938H9.844V20.781Zm0,7.5h5.729v5.938H9.844V28.281ZM32.656,38.438H7.344V35.781H32.656v2.656Zm5.781,0H34.219V35a0.781,0.781,0,0,0-.781-0.781H31.719v-2.2h2.487a0.781,0.781,0,0,0,0-1.562H31.719V28.275h2.487a0.781,0.781,0,0,0,0-1.562H31.719V24.528h2.487a0.781,0.781,0,0,0,0-1.562H31.719V20.781h2.487a0.781,0.781,0,0,0,0-1.562H31.719v-6.4l6.719,6.722v18.9ZM5.474,31.3a0.781,0.781,0,1,0,.229.552A0.783,0.783,0,0,0,5.474,31.3Zm-0.552-8.74a0.781,0.781,0,0,0-.781.781v5.569a0.781,0.781,0,0,0,1.562,0V23.338A0.781,0.781,0,0,0,4.922,22.557Z"/>
</svg>
