<svg xmlns="http://www.w3.org/2000/svg" width="60" height="59" viewBox="0 0 60 59">
  <metadata><?xpacket begin="﻿" id="W5M0MpCehiHzreSzNTczkc9d"?>
<x:xmpmeta xmlns:x="adobe:ns:meta/" x:xmptk="Adobe XMP Core 5.6-c138 79.159824, 2016/09/14-01:09:01        ">
   <rdf:RDF xmlns:rdf="http://www.w3.org/1999/02/22-rdf-syntax-ns#">
      <rdf:Description rdf:about=""/>
   </rdf:RDF>
</x:xmpmeta>
                                                                                                    
                                                                                                    
                                                                                                    
                                                                                                    
                                                                                                    
                                                                                                    
                                                                                                    
                                                                                                    
                                                                                                    
                                                                                                    
                                                                                                    
                                                                                                    
                                                                                                    
                                                                                                    
                                                                                                    
                                                                                                    
                                                                                                    
                                                                                                    
                                                                                                    
                                                                                                    
                           
<?xpacket end="w"?></metadata>
<defs>
    <style>
      .cls-1 {
        fill: #fff;
        fill-rule: evenodd;
      }
    </style>
  </defs>
  <path class="cls-1" d="M40.073,37.937a2.422,2.422,0,0,1-2.578-2.22,2.607,2.607,0,0,1,5.156,0,1.172,1.172,0,0,0,2.344,0,4.646,4.646,0,0,0-3.75-4.421V30.689a1.172,1.172,0,0,0-2.344,0V31.3a4.646,4.646,0,0,0-3.75,4.421,4.753,4.753,0,0,0,4.922,4.552,2.245,2.245,0,1,1-2.578,2.22,1.172,1.172,0,0,0-2.344,0A4.646,4.646,0,0,0,38.9,46.91v0.5a1.172,1.172,0,0,0,2.344,0v-0.5a4.646,4.646,0,0,0,3.75-4.421A4.753,4.753,0,0,0,40.073,37.937ZM52.908,31a15.247,15.247,0,0,0-6.237-5.492,1.167,1.167,0,1,0-1.016,2.1,12.8,12.8,0,0,1,5.811,17.583,1.171,1.171,0,0,0,2.069,1.1A15.11,15.11,0,0,0,52.908,31ZM41.915,24.02H41.836a1.166,1.166,0,1,0,0,2.332h0.073A1.166,1.166,0,1,0,41.915,24.02ZM34.5,50.745A12.8,12.8,0,0,1,28.69,33.162a1.163,1.163,0,0,0-.484-1.577,1.175,1.175,0,0,0-1.585.482,15.139,15.139,0,0,0,6.864,20.78A1.167,1.167,0,1,0,34.5,50.745ZM38.321,52H38.253a1.166,1.166,0,1,0-.011,2.332h0.079A1.166,1.166,0,1,0,38.321,52ZM45.4,20.075a5.34,5.34,0,0,0-.521-0.952H47.93a5.364,5.364,0,1,0,0-10.727H38.545a5.314,5.314,0,0,0,.947-3.032A5.383,5.383,0,0,0,34.1,0H5.391a5.364,5.364,0,1,0,0,10.727h9.384a5.326,5.326,0,0,0,0,6.063H11.719a5.355,5.355,0,0,0-3.35,9.561,5.337,5.337,0,0,0,0,8.4,5.337,5.337,0,0,0,0,8.4,5.355,5.355,0,0,0,3.35,9.561H25.529A19.868,19.868,0,1,0,45.4,20.075Zm2.53-9.348a3.032,3.032,0,1,1,0,6.063H19.219a3.032,3.032,0,1,1,0-6.063H47.93ZM5.391,8.4a3.032,3.032,0,1,1,0-6.063H34.1a3.032,3.032,0,1,1,0,6.063H5.391Zm6.328,10.727H40.43a3.059,3.059,0,0,1,1.329.3c-0.554-.046-1.115-0.071-1.681-0.071a19.91,19.91,0,0,0-14.1,5.83H11.719A3.032,3.032,0,1,1,11.719,19.123Zm0,8.4h12.26a19.726,19.726,0,0,0-3.012,6.063H11.719A3.032,3.032,0,1,1,11.719,27.518Zm0,8.4h8.709a19.736,19.736,0,0,0-.072,6.063H11.719A3.032,3.032,0,1,1,11.719,35.913Zm0,14.459a3.032,3.032,0,1,1,0-6.063h9.115a19.7,19.7,0,0,0,2.812,6.063H11.719Zm28.359,6.3a17.49,17.49,0,1,1,17.578-17.49A17.554,17.554,0,0,1,40.078,56.668Z"/>
</svg>
