<svg xmlns="http://www.w3.org/2000/svg" viewBox="0 0 211 57.52"><defs><style>.cls-1,.cls-2{fill:#47372a;}.cls-2{font-size:14.27px;font-family:ArialMT, Arial;letter-spacing:0.27em;}.cls-3{fill:#4b3900;}.cls-4{fill:#fff;}.cls-5{fill:#a6b4ac;}</style></defs><g id="Layer_2" data-name="Layer 2"><g id="Layer_1-2" data-name="Layer 1"><path class="cls-1" d="M0,10.84H8.06l3.61,14h.06l3.62-14h8.06v21H18.26V15.9H18.2L13.79,31.83H9.61L5.2,15.9h0V31.83H0Z"/><path class="cls-1" d="M40.61,10.84h5.56l7.85,21H48.31L47,28.07H39.7l-1.33,3.76H32.76ZM41,24h4.77L43.4,16.66h-.06Z"/><path class="cls-1" d="M67.57,24.78c.12,2.47,1.65,3.26,4,3.26,1.65,0,3.36-.59,3.36-2.15,0-1.85-3-2.2-6-3.05s-6.15-2.21-6.15-6.06c0-4.59,4.62-6.38,8.56-6.38,4.17,0,8.38,2,8.41,6.76H74.22c.09-1.91-1.71-2.53-3.38-2.53-1.18,0-2.65.41-2.65,1.8,0,1.61,3,1.91,6.09,2.76s6.08,2.26,6.08,6.06c0,5.32-4.52,7-9.14,7-4.82,0-9.09-2.11-9.11-7.49Z"/><path class="cls-1" d="M96.33,10.84h5.56l7.85,21H104l-1.3-3.76H95.42L94.1,31.83H88.48ZM96.69,24h4.76l-2.32-7.35h-.06Z"/><path class="cls-1" d="M119,10.84h5.61l7.29,12.94h.06V10.84h5.15v21h-5.62l-7.29-13.08h-.06V31.83H119Z"/><text class="cls-2" transform="translate(32.83 52.89)">TUNGSTEN</text><rect class="cls-3" x="158.11" width="52.89" height="52.89"/><polygon class="cls-4" points="191.57 8.74 184.55 20.01 177.54 8.74 166.71 26.15 174.35 26.15 177.54 21.02 180.73 26.15 180.74 26.15 188.37 26.15 188.38 26.15 191.57 21.02 194.75 26.15 202.4 26.15 191.57 8.74"/><polygon class="cls-5" points="202.4 26.74 194.75 26.74 191.57 31.86 188.38 26.74 188.37 26.74 180.74 26.74 180.73 26.74 177.54 31.86 174.35 26.74 166.71 26.74 177.54 44.15 184.55 32.88 191.57 44.15 202.4 26.74"/></g></g></svg>