<svg xmlns="http://www.w3.org/2000/svg" xmlns:xlink="http://www.w3.org/1999/xlink" viewBox="0 0 228.11 71.39"><defs><style>.cls-1{fill:none;}.cls-2{fill:#4b3900;}.cls-3{fill:#fff;}.cls-4{clip-path:url(#clip-path);}.cls-5{fill:url(#linear-gradient);}</style><clipPath id="clip-path"><polygon class="cls-1" points="164.82 55.17 220 55.17 192.41 27.58 164.82 55.17"/></clipPath><linearGradient id="linear-gradient" x1="3395.15" y1="5876.79" x2="3396.01" y2="5876.79" gradientTransform="matrix(0, -83.83, -83.83, 0, 492825.72, 284683.12)" gradientUnits="userSpaceOnUse"><stop offset="0" stop-color="#d6d2d0"/><stop offset="0" stop-color="#cecbc7"/><stop offset="0.07" stop-color="#bfbdba"/><stop offset="0.19" stop-color="#999896"/><stop offset="0.26" stop-color="gray"/><stop offset="0.52" stop-color="#e4e5e5"/><stop offset="0.59" stop-color="#d5d6d6"/><stop offset="0.73" stop-color="#afadaf"/><stop offset="0.88" stop-color="#807c80"/><stop offset="1" stop-color="#c2c4c5"/><stop offset="1" stop-color="#989a9d"/></linearGradient></defs><g id="Layer_2" data-name="Layer 2"><g id="Layer_2-2" data-name="Layer 2"><rect class="cls-2" x="164.82" width="55.18" height="55.17"/><polygon class="cls-3" points="164.82 55.17 192.41 0.61 220 55.17 164.82 55.17"/><g class="cls-4"><rect class="cls-5" x="170.76" y="10.88" width="43.29" height="61" transform="translate(93.59 211.58) rotate(-72)"/></g><polygon class="cls-2" points="4.86 48.28 4.86 43.96 7.11 43.96 7.11 54.74 4.86 54.74 4.86 49.93 2.27 49.93 2.27 54.74 0.02 54.74 0.02 43.96 2.27 43.96 2.27 48.28 4.86 48.28"/><rect class="cls-2" x="9.07" y="43.96" width="2.25" height="10.78"/><path class="cls-2" d="M18.14,47.28c0-1-.14-1.88-1.34-1.88-1.4,0-1.4,1.89-1.4,4,0,3.38.33,4,1.61,4a3.53,3.53,0,0,0,1.12-.21V50.75H16.9V49.1h3.48v5.46a20.48,20.48,0,0,1-3,.36c-3.79,0-4.23-1.57-4.23-5.66,0-2.72.14-5.48,3.82-5.48,2.21,0,3.59,1.24,3.45,3.5Z"/><polygon class="cls-2" points="27.25 48.28 27.25 43.96 29.51 43.96 29.51 54.74 27.25 54.74 27.25 49.93 24.67 49.93 24.67 54.74 22.42 54.74 22.42 43.96 24.67 43.96 24.67 48.28 27.25 48.28"/><rect class="cls-2" x="31.18" y="48.66" width="3.66" height="1.52"/><polygon class="cls-2" points="42.86 43.96 42.86 45.75 40.35 45.75 40.35 54.74 38.09 54.74 38.09 45.75 35.59 45.75 35.59 43.96 42.86 43.96"/><polygon class="cls-2" points="43.91 54.74 43.91 43.96 49.79 43.96 49.79 45.62 46.16 45.62 46.16 48.28 49.5 48.28 49.5 49.93 46.16 49.93 46.16 53.08 49.91 53.08 49.91 54.74 43.91 54.74"/><path class="cls-2" d="M51.27,49.35c0-2.85,0-5.57,3.71-5.57,2.3,0,3.23,1.27,3.14,3.59H55.91c0-1.44-.26-2-.93-2-1.26,0-1.43,1.19-1.43,4s.17,4,1.43,4c1.05,0,1-1.35,1-2.2h2.23c0,2.88-1.15,3.81-3.26,3.81-3.71,0-3.71-2.75-3.71-5.57"/><polygon class="cls-2" points="64.59 48.28 64.59 43.96 66.84 43.96 66.84 54.74 64.59 54.74 64.59 49.93 62 49.93 62 54.74 59.75 54.74 59.75 43.96 62 43.96 62 48.28 64.59 48.28"/><polygon class="cls-2" points="72.07 54.74 72.07 43.96 75.7 43.96 77.38 51.29 77.41 51.29 79.2 43.96 82.71 43.96 82.71 54.74 80.52 54.74 80.52 46.42 80.49 46.42 78.41 54.74 76.26 54.74 74.29 46.42 74.26 46.42 74.26 54.74 72.07 54.74"/><path class="cls-2" d="M83.73,54.74l3-10.78h3l2.92,10.78H90.24l-.6-2.39H86.57L86,54.74ZM88.08,46h0l-1,4.65h2.15Z"/><polygon class="cls-2" points="99.2 43.96 99.2 45.75 96.69 45.75 96.69 54.74 94.44 54.74 94.44 45.75 91.93 45.75 91.93 43.96 99.2 43.96"/><polygon class="cls-2" points="100.25 54.74 100.25 43.96 106.13 43.96 106.13 45.62 102.5 45.62 102.5 48.28 105.85 48.28 105.85 49.93 102.5 49.93 102.5 53.08 106.25 53.08 106.25 54.74 100.25 54.74"/><path class="cls-2" d="M109.92,54.74h-2.25V44h4.17c1.53,0,2.52,1,2.52,2.82a2.33,2.33,0,0,1-2,2.65v0a1.91,1.91,0,0,1,2,2.12,14.69,14.69,0,0,0,.26,3.16h-2.21a4.93,4.93,0,0,1-.24-2.09c0-1.28.12-2.37-1.61-2.37h-.59Zm0-6.12h1c.89,0,1.15-.9,1.15-1.58,0-1-.44-1.42-1.15-1.42h-1Z"/><rect class="cls-2" x="116.02" y="43.96" width="2.25" height="10.78"/><path class="cls-2" d="M119.35,54.74l3-10.78h3l2.92,10.78h-2.37l-.6-2.39h-3.07l-.62,2.39Zm4.34-8.7h0l-1,4.65h2.15Z"/><polygon class="cls-2" points="129.31 54.74 129.31 43.96 131.56 43.96 131.56 52.95 134.94 52.95 134.94 54.74 129.31 54.74"/><path class="cls-2" d="M138.85,54.92c-2.79,0-3.31-1.64-3.19-3.51h2.25c0,1,0,1.9,1.28,1.9a1.08,1.08,0,0,0,1.14-1.23c0-1.94-4.54-2.06-4.54-5.27,0-1.68.81-3,3.55-3,2.2,0,3.29,1,3.14,3.24h-2.2c0-.8-.13-1.62-1-1.62a1.05,1.05,0,0,0-1.17,1.14c0,2.05,4.54,1.87,4.54,5.26,0,2.79-2,3.12-3.76,3.12"/><polygon class="cls-2" points="0 10.94 8.38 10.94 12.15 25.5 12.21 25.5 15.97 10.94 24.36 10.94 24.36 32.78 19 32.78 19 16.2 18.94 16.2 14.35 32.78 10.01 32.78 5.42 16.2 5.36 16.2 5.36 32.78 0 32.78 0 10.94"/><path class="cls-2" d="M42.26,10.94h5.79l8.17,21.85H50.28l-1.35-3.92H41.31l-1.37,3.92H34.09Zm.37,13.71h5L45.17,17h-.06Z"/><path class="cls-2" d="M70.33,25.44c.12,2.57,1.71,3.4,4.13,3.4,1.71,0,3.48-.61,3.48-2.24,0-1.92-3.12-2.29-6.27-3.18s-6.39-2.29-6.39-6.3c0-4.78,4.8-6.64,8.9-6.64,4.35,0,8.72,2.11,8.75,7H77.24c.09-2-1.77-2.64-3.52-2.64-1.22,0-2.75.43-2.75,1.87,0,1.68,3.15,2,6.33,2.88s6.34,2.35,6.34,6.3c0,5.54-4.72,7.31-9.52,7.31-5,0-9.46-2.2-9.49-7.8Z"/><path class="cls-2" d="M100.25,10.94H106l8.17,21.85h-5.94l-1.34-3.92H99.31l-1.38,3.92H92.08Zm.37,13.71h5L103.16,17h-.06Z"/><polygon class="cls-2" points="123.82 10.94 129.66 10.94 137.25 24.4 137.31 24.4 137.31 10.94 142.67 10.94 142.67 32.78 136.82 32.78 129.24 19.17 129.18 19.17 129.18 32.78 123.82 32.78 123.82 10.94"/></g></g></svg>