<svg id="Layer_1" data-name="Layer 1" xmlns="http://www.w3.org/2000/svg" xmlns:xlink="http://www.w3.org/1999/xlink" viewBox="0 0 1432.63 538.93"><defs><style>.cls-1,.cls-10,.cls-3,.cls-4,.cls-5,.cls-6,.cls-7,.cls-8,.cls-9{fill:none;}.cls-2{opacity:0.18;}.cls-10,.cls-15,.cls-3,.cls-4,.cls-5,.cls-6,.cls-7,.cls-8,.cls-9{stroke:#898989;}.cls-3{stroke-miterlimit:10;stroke-width:0.75px;}.cls-15,.cls-4,.cls-5,.cls-6,.cls-7,.cls-8{stroke-miterlimit:10;stroke-width:0.75px;}.cls-4,.cls-9{stroke-dasharray:12 5 2;}.cls-6{stroke-dasharray:1.89 11.36 4.74 1.89;}.cls-7{stroke-dasharray:11.36 4.74 1.89 11.36 4.74 1.89;}.cls-8{stroke-dasharray:1.24 7.44 3.1 1.24;}.cls-9{stroke-miterlimit:10;stroke-width:0.75px;}.cls-10{stroke-miterlimit:10.02;stroke-width:0.75px;}.cls-11,.cls-16{fill:#898989;}.cls-12,.cls-15{fill:#fff;}.cls-13{clip-path:url(#clip-path);}.cls-14{fill:url(#linear-gradient);}.cls-16{fill-rule:evenodd;}</style><clipPath id="clip-path"><polygon class="cls-1" points="596.38 348.87 810.29 348.87 703.33 241.91 596.38 348.87"/></clipPath><linearGradient id="linear-gradient" x1="3891.98" y1="-3490.92" x2="3895.31" y2="-3490.92" gradientTransform="translate(293347.45 326686.85) rotate(-90) scale(83.83)" gradientUnits="userSpaceOnUse"><stop offset="0" stop-color="#d9d5d2"/><stop offset="0" stop-color="#d0cdc9"/><stop offset="0.06" stop-color="#c2bfbc"/><stop offset="0.19" stop-color="#9a9998"/><stop offset="0.26" stop-color="#818181"/><stop offset="0.52" stop-color="#e6e7e7"/><stop offset="0.59" stop-color="#d7d8d8"/><stop offset="0.73" stop-color="#b2b0b1"/><stop offset="0.88" stop-color="#807d81"/><stop offset="1" stop-color="#c4c6c7"/><stop offset="1" stop-color="#999c9e"/></linearGradient></defs><g class="cls-2"><circle class="cls-3" cx="707.66" cy="244.57" r="206.83"/><path class="cls-4" d="M904.21,122.47A230.22,230.22,0,0,1,939,244.58c0,119.8-91,218.32-207.71,230.17"/><path class="cls-5" d="M463.46,244.58q0-4,.12-8"/><path class="cls-6" d="M463.87,230.32a243.66,243.66,0,0,1,2.73-25"/><path class="cls-7" d="M466.81,204.05C485.62,91.41,581.52,4.88,698.43.55"/><path class="cls-5" d="M699.69.5c2.67-.09,5.33-.12,8-.12v8"/><line class="cls-8" x1="707.67" y1="12.47" x2="707.67" y2="28.95"/><line class="cls-5" x1="707.67" y1="29.78" x2="707.67" y2="37.75"/><polyline class="cls-5" points="875.72 124 1046.1 124 1090.09 168 1411.59 168"/><circle class="cls-5" cx="258.03" cy="342.07" r="89.94"/><circle class="cls-3" cx="58.62" cy="69.12" r="54.95"/><circle class="cls-4" cx="58.61" cy="69.12" r="30.65"/><path class="cls-5" d="M107.64,45.52A132.94,132.94,0,0,1,262.2,252.22"/><polygon class="cls-5" points="1204.62 356.64 1101.25 356.64 1049.57 446.17 1101.25 535.67 1204.62 535.67 1256.3 446.17 1204.62 356.64"/><polygon class="cls-4" points="1183.52 393.19 1122.35 393.19 1091.77 446.17 1122.35 499.13 1183.52 499.13 1214.1 446.17 1183.52 393.19"/><polyline class="cls-5" points="525.22 342.06 258.03 342.06 258.03 432 168.09 342.06 3.66 342.06"/><polyline class="cls-5" points="1049.57 446.17 973.66 446.17 973.66 284.42 1090.09 168 1130.45 208.35 1355.91 208.35 1355.91 283.01 1411.59 283.01"/><polyline class="cls-5" points="22.46 528.07 62.2 488.32 420.78 488.32 456.51 452.6 489.02 452.6"/><line class="cls-5" x1="1256.3" y1="446.17" x2="1355.91" y2="446.17"/><circle class="cls-9" cx="258.02" cy="342.04" r="20.56"/><line class="cls-5" x1="58.61" y1="510.64" x2="419.36" y2="510.64"/><polyline class="cls-5" points="1130.45 208.35 1130.45 244.59 1152.93 244.59 1152.93 255.81 1130.45 255.81 1130.45 267.05 1152.93 267.05 1152.93 278.29 1130.45 278.29 1130.45 289.54 1152.93 289.54 1152.93 300.77 1130.45 300.77 1130.45 312.01 1152.93 312.01 1152.93 323.07 1130.45 323.07 1130.45 334.32 1152.93 334.32 1152.93 446.17"/><polyline class="cls-5" points="973.66 379.95 872.2 481.43 737.68 481.43"/><line class="cls-5" x1="58.61" y1="124.08" x2="58.61" y2="342.07"/><line class="cls-4" x1="463.46" y1="243.16" x2="271.43" y2="243.16"/><polyline class="cls-5" points="554.57 452.6 597.82 452.6 655.39 510.18 707.67 510.18 707.67 451.4 789.1 532.85 973.66 532.85"/><polyline class="cls-5" points="1193.15 234.59 1228.84 234.59 1251.49 257.24 1315.93 257.24"/><polyline class="cls-5" points="1193.15 257.01 1228.84 257.01 1251.49 279.67 1315.93 279.67"/><polyline class="cls-5" points="1193.15 282.5 1228.84 282.5 1251.49 305.15 1315.93 305.15"/><polyline class="cls-5" points="1193.15 305.94 1228.84 305.94 1251.49 328.58 1315.93 328.58"/><path class="cls-5" d="M1323.25,257a3.66,3.66,0,1,1-3.66-3.67,3.66,3.66,0,0,1,3.66,3.67Z"/><circle class="cls-5" cx="1319.59" cy="305.16" r="3.66"/><path class="cls-5" d="M1323.25,279.67a3.66,3.66,0,1,1-3.66-3.66,3.66,3.66,0,0,1,3.66,3.66Z"/><path class="cls-5" d="M1323.25,328.58a3.66,3.66,0,1,1-3.66-3.66,3.66,3.66,0,0,1,3.66,3.66Z"/><polyline class="cls-5" points="503.21 276 470.19 309.01 255.74 309.01 181.27 234.56 181.27 117.06 376.53 117.06 424.17 164.71"/><path class="cls-5" d="M430.78,510.64a5.71,5.71,0,1,1-5.71-5.71h0A5.71,5.71,0,0,1,430.78,510.64Z"/><path class="cls-5" d="M446.44,510.64a5.71,5.71,0,1,1-5.71-5.71h0A5.71,5.71,0,0,1,446.44,510.64Z"/><path class="cls-5" d="M25.32,532.84a5.71,5.71,0,1,1-5.71-5.71,5.71,5.71,0,0,1,5.71,5.71Z"/><path class="cls-5" d="M158.81,397.14a5.71,5.71,0,1,1-5.71-5.72,5.71,5.71,0,0,1,5.71,5.72Z"/><path class="cls-5" d="M946.17,493.19a5.72,5.72,0,1,1-5.73-5.71h0A5.72,5.72,0,0,1,946.17,493.19Z"/><path class="cls-5" d="M1061,379.66a5.71,5.71,0,1,1-5.71-5.71h0A5.71,5.71,0,0,1,1061,379.66Z"/><path class="cls-5" d="M1024.53,289.1a5.71,5.71,0,1,1-5.71-5.71,5.72,5.72,0,0,1,5.71,5.71Z"/><path class="cls-5" d="M462.14,510.64a5.72,5.72,0,1,1-5.73-5.71h0A5.71,5.71,0,0,1,462.14,510.64Z"/><path class="cls-5" d="M477.74,510.64a5.71,5.71,0,1,1-5.71-5.71h0A5.71,5.71,0,0,1,477.74,510.64Z"/><polyline class="cls-5" points="148.01 397.13 79.57 397.13 59.1 376.67"/><line class="cls-5" x1="79.57" y1="397.14" x2="58.63" y2="418.08"/><polyline class="cls-5" points="946.1 492.94 1014.54 492.94 1035.02 472.48"/><line class="cls-5" x1="1014.54" y1="492.95" x2="1035.49" y2="513.9"/><polyline class="cls-5" points="363.17 424.94 400.76 387.36 558.32 387.36"/><polyline class="cls-5" points="1411.59 103.81 1348.01 103.81 1315.93 135.9 1117.49 135.9 1177.04 76.33"/><circle class="cls-10" cx="1181.81" cy="77.43" r="37.32" transform="matrix(0.53, -0.85, 0.85, 0.53, 490.81, 1039.3)"/><circle class="cls-4" cx="1176.84" cy="76.33" r="26.35"/><line class="cls-5" x1="841.37" y1="86.79" x2="960.44" y2="86.79"/><circle class="cls-5" cx="1152.93" cy="446.17" r="10.66"/><path class="cls-5" d="M979.07,243.46a5.41,5.41,0,1,1-5.41-5.42,5.42,5.42,0,0,1,5.41,5.42Z"/><path class="cls-5" d="M979.08,207.28a5.42,5.42,0,1,1-5.42-5.42h0A5.43,5.43,0,0,1,979.08,207.28Z"/><path class="cls-5" d="M979.08,168.82a5.42,5.42,0,1,1-5.43-5.41h0A5.42,5.42,0,0,1,979.08,168.82Z"/><line class="cls-5" x1="973.66" y1="284.42" x2="973.66" y2="257.23"/><line class="cls-5" x1="973.66" y1="124.01" x2="973.66" y2="146.96"/><polyline class="cls-5" points="331.56 83.44 394.93 83.44 458.53 147.03"/><line class="cls-5" x1="437.88" y1="83.44" x2="473.71" y2="119.26"/><polyline class="cls-5" points="790.55 20.59 867.64 20.59 905.73 58.67"/><line class="cls-5" x1="905.73" y1="20.59" x2="939.47" y2="54.34"/><polyline class="cls-5" points="1395.51 364.13 1318.41 364.13 1280.33 402.21"/><line class="cls-5" x1="1280.33" y1="364.13" x2="1242.45" y2="402.01"/><rect class="cls-5" x="80.06" y="315.17" width="11.32" height="11.32"/><rect class="cls-5" x="98.62" y="315.17" width="11.32" height="11.32"/><rect class="cls-5" x="117.18" y="315.17" width="11.32" height="11.32"/><rect class="cls-5" x="135.74" y="315.17" width="11.32" height="11.32"/><rect class="cls-5" x="1272.6" y="423.44" width="11.32" height="11.32"/><rect class="cls-5" x="1291.16" y="423.44" width="11.32" height="11.32"/><rect class="cls-5" x="1309.72" y="423.44" width="11.32" height="11.32"/><rect class="cls-5" x="1328.28" y="423.44" width="11.32" height="11.32"/><polyline class="cls-5" points="1018.82 294.81 1018.82 343.01 1051.21 375.42"/><path class="cls-11" d="M111.3,45.52a3.66,3.66,0,1,1-3.66-3.66,3.66,3.66,0,0,1,3.66,3.66Z"/><path class="cls-11" d="M265.86,252.22a3.66,3.66,0,1,1-3.66-3.66,3.66,3.66,0,0,1,3.66,3.66Z"/><path class="cls-11" d="M62.27,510.64A3.66,3.66,0,1,1,58.59,507h0A3.65,3.65,0,0,1,62.27,510.64Z"/><path class="cls-11" d="M7.32,342.07a3.66,3.66,0,1,1-3.66-3.66,3.66,3.66,0,0,1,3.66,3.66Z"/><circle class="cls-11" cx="258.02" cy="342.05" r="7.83"/><path class="cls-11" d="M715.61,37.75a7.95,7.95,0,1,1-8-7.95h0a7.94,7.94,0,0,1,7.94,7.92Z"/><path class="cls-11" d="M62.76,195.52a4.15,4.15,0,1,1-4.16-4.13h0A4.16,4.16,0,0,1,62.76,195.52Z"/><path class="cls-11" d="M62.76,209.61a4.15,4.15,0,1,1-4.16-4.14h0A4.15,4.15,0,0,1,62.76,209.61Z"/><path class="cls-11" d="M62.76,223.69a4.15,4.15,0,1,1-4.16-4.14h0A4.15,4.15,0,0,1,62.76,223.69Z"/><path class="cls-11" d="M62.76,237.77a4.15,4.15,0,1,1-4.16-4.14h0A4.15,4.15,0,0,1,62.76,237.77Z"/><path class="cls-11" d="M62.76,251.85a4.15,4.15,0,1,1-4.15-4.15h0A4.15,4.15,0,0,1,62.76,251.85Z"/><polygon class="cls-11" points="395.05 342.06 403.61 347 403.61 337.12 395.05 342.06"/><polygon class="cls-11" points="409.32 342.06 417.89 347 417.89 337.12 409.32 342.06"/><polygon class="cls-11" points="423.6 342.06 432.17 347 432.17 337.12 423.6 342.06"/><polygon class="cls-11" points="437.88 342.06 446.44 347 446.44 337.12 437.88 342.06"/><polygon class="cls-11" points="452.15 342.06 460.72 347 460.72 337.12 452.15 342.06"/><polygon class="cls-11" points="295.09 83.44 303.66 88.39 303.66 78.5 295.09 83.44"/><polygon class="cls-11" points="309.37 83.44 317.94 88.39 317.94 78.5 309.37 83.44"/><polygon class="cls-11" points="323.65 83.44 332.21 88.39 332.21 78.5 323.65 83.44"/><polygon class="cls-11" points="753.43 20.59 762 25.54 762 15.64 753.43 20.59"/><polygon class="cls-11" points="767.71 20.59 776.27 25.54 776.27 15.64 767.71 20.59"/><polygon class="cls-11" points="781.98 20.59 790.55 25.54 790.55 15.64 781.98 20.59"/><polygon class="cls-11" points="284.86 488.24 293.42 493.19 293.42 483.3 284.86 488.24"/><polygon class="cls-11" points="299.13 488.24 307.7 493.19 307.7 483.3 299.13 488.24"/><polygon class="cls-11" points="313.41 488.24 321.98 493.19 321.98 483.3 313.41 488.24"/><polygon class="cls-11" points="327.69 488.24 336.25 493.19 336.25 483.3 327.69 488.24"/><polygon class="cls-11" points="341.96 488.24 350.53 493.19 350.53 483.3 341.96 488.24"/><polygon class="cls-11" points="1039.34 532.85 1030.77 537.78 1030.77 527.89 1039.34 532.85"/><polygon class="cls-11" points="1025.06 532.85 1016.49 537.78 1016.49 527.89 1025.06 532.85"/><polygon class="cls-11" points="1010.78 532.85 1002.22 537.78 1002.22 527.89 1010.78 532.85"/><polygon class="cls-11" points="996.51 532.85 987.94 537.78 987.94 527.89 996.51 532.85"/><polygon class="cls-11" points="982.23 532.85 973.66 537.78 973.66 527.89 982.23 532.85"/><polygon class="cls-11" points="1025.06 86.25 1016.49 91.19 1016.49 81.31 1025.06 86.25"/><polygon class="cls-11" points="1010.78 86.25 1002.22 91.19 1002.22 81.31 1010.78 86.25"/><polygon class="cls-11" points="996.5 86.25 987.94 91.19 987.94 81.31 996.5 86.25"/><polygon class="cls-11" points="982.23 86.25 973.66 91.19 973.66 81.31 982.23 86.25"/><polygon class="cls-11" points="967.95 86.25 959.39 91.19 959.39 81.31 967.95 86.25"/><polygon class="cls-11" points="1421.58 446.17 1413.01 451.11 1413.01 441.21 1421.58 446.17"/><polygon class="cls-11" points="1407.3 446.17 1398.74 451.11 1398.74 441.21 1407.3 446.17"/><polygon class="cls-11" points="1393.03 446.17 1384.46 451.11 1384.46 441.21 1393.03 446.17"/><polygon class="cls-11" points="1378.75 446.17 1370.18 451.11 1370.18 441.21 1378.75 446.17"/><polygon class="cls-11" points="1364.47 446.17 1355.91 451.11 1355.91 441.21 1364.47 446.17"/><polygon class="cls-11" points="181.27 143.09 186.22 151.66 176.32 151.66 181.27 143.09"/><polygon class="cls-11" points="181.27 157.38 186.22 165.94 176.32 165.94 181.27 157.38"/><polygon class="cls-11" points="181.27 171.65 186.22 180.22 176.32 180.22 181.27 171.65"/><polygon class="cls-11" points="181.27 185.93 186.22 194.5 176.32 194.5 181.27 185.93"/><polygon class="cls-11" points="181.27 200.21 186.22 208.76 176.32 208.76 181.27 200.21"/><polygon class="cls-11" points="1279.77 135.9 1271.21 140.84 1271.21 130.94 1279.77 135.9"/><polygon class="cls-11" points="1265.5 135.9 1256.93 140.84 1256.93 130.94 1265.5 135.9"/><polygon class="cls-11" points="1251.22 135.9 1242.65 140.84 1242.65 130.94 1251.22 135.9"/><polygon class="cls-11" points="1236.94 135.9 1228.38 140.84 1228.38 130.94 1236.94 135.9"/><polygon class="cls-11" points="1222.67 135.9 1214.1 140.84 1214.1 130.94 1222.67 135.9"/><polygon class="cls-11" points="973.66 297.99 968.72 306.56 978.61 306.56 973.66 297.99"/><polygon class="cls-11" points="973.66 312.26 968.72 320.83 978.61 320.83 973.66 312.26"/><polygon class="cls-11" points="973.66 326.55 968.72 335.11 978.61 335.11 973.66 326.55"/><polygon class="cls-11" points="973.66 340.81 968.72 349.38 978.61 349.38 973.66 340.81"/><polygon class="cls-11" points="973.66 355.1 968.72 363.67 978.61 363.67 973.66 355.1"/><path class="cls-11" d="M468.87,243.16a5.41,5.41,0,1,1-5.41-5.41,5.41,5.41,0,0,1,5.41,5.41Z"/><path class="cls-11" d="M429,164.33a5.41,5.41,0,1,1-5.41-5.42,5.41,5.41,0,0,1,5.41,5.42Z"/><path class="cls-11" d="M437.88,219.55a5.42,5.42,0,1,1-5.42-5.43h0A5.42,5.42,0,0,1,437.88,219.55Z"/><path class="cls-11" d="M333.1,189a5.42,5.42,0,1,1-5.43-5.42h0A5.42,5.42,0,0,1,333.1,189Z"/><path class="cls-11" d="M463.46,147a5.42,5.42,0,1,1-5.43-5.42h0A5.43,5.43,0,0,1,463.46,147Z"/><path class="cls-11" d="M479.12,119.26a5.41,5.41,0,1,1-5.41-5.4h0A5.41,5.41,0,0,1,479.12,119.26Z"/><path class="cls-11" d="M443.29,83.44A5.41,5.41,0,1,1,437.88,78a5.41,5.41,0,0,1,5.41,5.44Z"/><path class="cls-11" d="M979.07,380a5.41,5.41,0,1,1-5.41-5.42h0A5.42,5.42,0,0,1,979.07,380Z"/><path class="cls-11" d="M909.63,122.47a5.42,5.42,0,1,1-5.43-5.41h0A5.44,5.44,0,0,1,909.63,122.47Z"/><circle class="cls-11" cx="905.73" cy="58.67" r="5.41"/><circle class="cls-11" cx="905.73" cy="20.59" r="5.41"/><path class="cls-11" d="M944.89,54.34a5.42,5.42,0,1,1-5.43-5.41h0A5.42,5.42,0,0,1,944.89,54.34Z"/><path class="cls-11" d="M736.73,474.75a5.41,5.41,0,1,1-5.41-5.42h0A5.42,5.42,0,0,1,736.73,474.75Z"/><path class="cls-11" d="M713.08,451.41a5.41,5.41,0,1,1-5.41-5.41h0A5.41,5.41,0,0,1,713.08,451.41Z"/><polygon class="cls-11" points="502.31 444.93 493.45 444.93 489.02 452.6 493.45 460.26 502.31 460.26 506.74 452.6 502.31 444.93"/><polygon class="cls-11" points="525.87 444.93 517 444.93 512.57 452.6 517 460.26 525.87 460.26 530.3 452.6 525.87 444.93"/><polygon class="cls-11" points="550.14 444.93 541.27 444.93 536.84 452.6 541.27 460.26 550.14 460.26 554.57 452.6 550.14 444.93"/><path class="cls-11" d="M66.24,69.12a7.63,7.63,0,1,1-7.63-7.63A7.63,7.63,0,0,1,66.24,69.12Z"/><path class="cls-11" d="M1196.81,306a3.66,3.66,0,1,1-3.66-3.67,3.66,3.66,0,0,1,3.66,3.67Z"/><path class="cls-11" d="M1415.24,283a3.66,3.66,0,1,1-3.66-3.67h0a3.65,3.65,0,0,1,3.65,3.65Z"/><path class="cls-11" d="M1285.14,402.22a3.66,3.66,0,1,1-3.66-3.67,3.66,3.66,0,0,1,3.66,3.67Z"/><path class="cls-11" d="M1246.31,402.22a3.66,3.66,0,1,1-3.66-3.67,3.66,3.66,0,0,1,3.66,3.67Z"/><path class="cls-11" d="M1284,363.57a3.66,3.66,0,1,1-3.66-3.66h0a3.65,3.65,0,0,1,3.65,3.63Z"/><path class="cls-11" d="M1415.24,168a3.66,3.66,0,1,1-3.66-3.67h0a3.65,3.65,0,0,1,3.65,3.63Z"/><path class="cls-11" d="M1196.81,257a3.66,3.66,0,1,1-3.66-3.67,3.66,3.66,0,0,1,3.66,3.67Z"/><path class="cls-11" d="M1196.81,282.51a3.66,3.66,0,1,1-3.66-3.66,3.66,3.66,0,0,1,3.66,3.66Z"/><path class="cls-11" d="M1196.81,234.58a3.66,3.66,0,1,1-3.66-3.66,3.66,3.66,0,0,1,3.66,3.66Z"/><rect class="cls-11" x="307.7" y="126.88" width="6.13" height="18.01"/><rect class="cls-11" x="323.44" y="126.88" width="6.13" height="18.01"/><rect class="cls-11" x="339.18" y="126.88" width="6.13" height="18.01"/><rect class="cls-11" x="354.92" y="126.88" width="6.13" height="18.01"/><rect class="cls-11" x="370.65" y="126.88" width="6.13" height="18.01"/><rect class="cls-11" x="1091.77" y="316.02" width="18.01" height="6.13"/><rect class="cls-11" x="1091.77" y="300.29" width="18.01" height="6.13"/><rect class="cls-11" x="1091.77" y="284.54" width="18.01" height="6.13"/><rect class="cls-11" x="1091.77" y="268.8" width="18.01" height="6.13"/><rect class="cls-11" x="1091.77" y="253.07" width="18.01" height="6.13"/><rect class="cls-11" x="1275.35" y="158.19" width="6.13" height="18.01"/><rect class="cls-11" x="1259.61" y="158.19" width="6.13" height="18.01"/><rect class="cls-11" x="1243.87" y="158.19" width="6.13" height="18.01"/><rect class="cls-11" x="1228.13" y="158.19" width="6.13" height="18.01"/><rect class="cls-11" x="1212.39" y="158.19" width="6.13" height="18.01"/><path class="cls-11" d="M132.48,510.64a3.66,3.66,0,1,1-3.67-3.65h0A3.64,3.64,0,0,1,132.48,510.64Z"/><path class="cls-11" d="M143.67,510.64A3.66,3.66,0,1,1,140,507h0A3.65,3.65,0,0,1,143.67,510.64Z"/><path class="cls-11" d="M155.33,510.64a3.66,3.66,0,1,1-3.67-3.65h0A3.66,3.66,0,0,1,155.33,510.64Z"/><path class="cls-11" d="M167,510.64a3.66,3.66,0,1,1-3.67-3.65h0A3.66,3.66,0,0,1,167,510.64Z"/><path class="cls-11" d="M179.12,510.64a3.66,3.66,0,1,1-3.67-3.65h0A3.66,3.66,0,0,1,179.12,510.64Z"/><path class="cls-11" d="M1181.81,76.33a5,5,0,1,1-5-5A5,5,0,0,1,1181.81,76.33Z"/><path class="cls-11" d="M1156.59,446.17a3.66,3.66,0,1,1-3.66-3.66,3.66,3.66,0,0,1,3.66,3.66Z"/><path class="cls-11" d="M1039.15,472.48a3.66,3.66,0,1,1-3.66-3.66,3.66,3.66,0,0,1,3.66,3.66Z"/><path class="cls-11" d="M1038.68,513.9a3.66,3.66,0,1,1-3.66-3.66,3.65,3.65,0,0,1,3.66,3.66Z"/><path class="cls-11" d="M1415.24,103.8a3.66,3.66,0,1,1-3.66-3.66h0a3.65,3.65,0,0,1,3.65,3.65Z"/><path class="cls-11" d="M979.07,150.11a5.41,5.41,0,1,1-5.41-5.42,5.41,5.41,0,0,1,5.41,5.42Z"/><path class="cls-11" d="M979.08,189a5.42,5.42,0,1,1-5.43-5.41h0A5.43,5.43,0,0,1,979.08,189Z"/><path class="cls-11" d="M979.07,260.67a5.41,5.41,0,1,1-5.41-5.41h0A5.42,5.42,0,0,1,979.07,260.67Z"/><path class="cls-11" d="M979.08,225.83a5.42,5.42,0,1,1-5.43-5.4h0A5.43,5.43,0,0,1,979.08,225.83Z"/><polygon class="cls-11" points="1432.63 364.13 1424.06 369.07 1424.06 359.19 1432.63 364.13"/><polygon class="cls-11" points="1418.35 364.13 1409.78 369.07 1409.78 359.19 1418.35 364.13"/><polygon class="cls-11" points="1404.07 364.13 1395.51 369.07 1395.51 359.19 1404.07 364.13"/><path class="cls-11" d="M62.76,376.67A3.66,3.66,0,1,1,59.1,373a3.65,3.65,0,0,1,3.66,3.67Z"/><path class="cls-11" d="M62.29,418.08a3.66,3.66,0,1,1-3.66-3.66,3.66,3.66,0,0,1,3.66,3.66Z"/><path class="cls-11" d="M366.83,425a3.66,3.66,0,1,1-3.66-3.67,3.66,3.66,0,0,1,3.66,3.67Z"/><circle class="cls-11" cx="558.32" cy="387.35" r="3.66"/><path class="cls-11" d="M506.87,276.72a3.66,3.66,0,1,1-3.66-3.67,3.66,3.66,0,0,1,3.66,3.67Z"/><path class="cls-11" d="M845,86.79a3.66,3.66,0,1,1-3.67-3.65h0A3.67,3.67,0,0,1,845,86.79Z"/><path class="cls-11" d="M879.38,124.08a3.66,3.66,0,1,1-3.66-3.67h0a3.66,3.66,0,0,1,3.66,3.64Z"/><path class="cls-11" d="M528.88,342.07a3.66,3.66,0,1,1-3.66-3.66h0A3.66,3.66,0,0,1,528.88,342.07Z"/><rect class="cls-11" x="798.12" y="477.7" width="7.42" height="7.42"/><rect class="cls-11" x="810.29" y="477.7" width="7.42" height="7.42"/><rect class="cls-11" x="822.46" y="477.7" width="7.42" height="7.42"/><rect class="cls-11" x="834.63" y="477.7" width="7.42" height="7.42"/><rect class="cls-11" x="282.88" y="305.1" width="7.42" height="7.42"/><rect class="cls-11" x="295.05" y="305.1" width="7.42" height="7.42"/><rect class="cls-11" x="307.22" y="305.1" width="7.42" height="7.42"/><rect class="cls-11" x="319.39" y="305.1" width="7.42" height="7.42"/><polyline class="cls-5" points="326.5 189.01 403.61 189.01 432.77 218.18"/><rect class="cls-11" x="596.38" y="134.97" width="213.92" height="213.9"/><polygon class="cls-12" points="596.38 348.87 703.33 137.34 810.29 348.87 596.38 348.87"/><g class="cls-13"><rect class="cls-14" x="619.37" y="177.1" width="167.84" height="236.5" transform="translate(205.07 872.95) rotate(-72)"/></g><path class="cls-15" d="M748.41,451.17a40.46,40.46,0,1,1-40.63-40.29H708A40.38,40.38,0,0,1,748.41,451.17Z"/><path class="cls-15" d="M1182.68,446.6a29.89,29.89,0,1,1-30-29.74h.17A29.84,29.84,0,0,1,1182.68,446.6Z"/><path class="cls-15" d="M1197,75.4a20,20,0,1,1-20.07-19.93h.07A20,20,0,0,1,1197,75.4Z"/><path class="cls-15" d="M545.83,275.85a40.77,40.77,0,1,1-41-40.57h.2A40.7,40.7,0,0,1,545.83,275.85Z"/><path class="cls-15" d="M83,69A24.88,24.88,0,1,1,58,44.23h.09A24.82,24.82,0,0,1,83,69Z"/><path class="cls-15" d="M299.13,341a41.15,41.15,0,1,1-41.3-41H258a41,41,0,0,1,41.13,41Z"/><path class="cls-15" d="M309.37,117.48a24.5,24.5,0,1,1-24.6-24.4h.1a24.45,24.45,0,0,1,24.5,24.39Z"/><path class="cls-15" d="M916.32,123a41.73,41.73,0,1,1-41.91-41.55h.18A41.65,41.65,0,0,1,916.32,123Z"/><path class="cls-15" d="M991.81,120.23a18.44,18.44,0,1,1-18.52-18.35h.08a18.4,18.4,0,0,1,18.44,18.36Z"/><path class="cls-11" d="M511.15,288.05H499a6.09,6.09,0,0,1-6.09-6.08,1.22,1.22,0,0,1,1.22-1.22H516a1.22,1.22,0,0,1,1.22,1.22,6.09,6.09,0,0,1-6.09,6.08Zm-15.62-4.86a3.67,3.67,0,0,0,3.45,2.42h12.17a3.67,3.67,0,0,0,3.45-2.42Z"/><path class="cls-11" d="M516,254H494.11a1.22,1.22,0,0,1-1.22-1.2v0a6.09,6.09,0,0,1,6.09-6.09h12.17a6.09,6.09,0,0,1,6.09,6.09A1.22,1.22,0,0,1,516,254Zm-20.49-2.43H514.6a3.65,3.65,0,0,0-3.45-2.44H499a3.65,3.65,0,0,0-3.44,2.44Z"/><path class="cls-11" d="M516,266.14H494.11a1.22,1.22,0,0,1-1.22-1.22h0v-7.3a1.2,1.2,0,0,1,1.2-1.22H516a1.21,1.21,0,0,1,1.22,1.19v7.33A1.23,1.23,0,0,1,516,266.14Zm-20.7-2.44h19.49v-4.87H495.32Z"/><path class="cls-11" d="M516,278.32H494.11a1.22,1.22,0,0,1-1.22-1.22h0v-7.31a1.22,1.22,0,0,1,1.22-1.22H516a1.22,1.22,0,0,1,1.22,1.22v7.31A1.23,1.23,0,0,1,516,278.32Zm-20.7-2.44h19.49V271H495.32Z"/><path class="cls-11" d="M511.15,292.92H499a1.22,1.22,0,0,1-1.22-1.22h0v-4.87a1.22,1.22,0,0,1,1.22-1.22h12.17a1.22,1.22,0,0,1,1.22,1.22h0v4.87a1.22,1.22,0,0,1-1.22,1.22h0Zm-11-2.44h9.75v-2.43h-9.75Z"/><path class="cls-11" d="M518.46,283.19H491.67a3.66,3.66,0,0,1,0-7.31h26.79a3.66,3.66,0,0,1,0,7.31Zm-26.79-4.87a1.22,1.22,0,0,0-1.33,1.1,1.24,1.24,0,0,0,1.11,1.33h27a1.24,1.24,0,0,0,1.33-1.11,1.22,1.22,0,0,0-1.11-1.32h-27Z"/><path class="cls-11" d="M518.46,271H491.67a3.66,3.66,0,0,1,0-7.31h26.79a3.66,3.66,0,0,1,0,7.31Zm-26.79-4.87a1.22,1.22,0,1,0-.22,2.42h27a1.22,1.22,0,1,0,.22-2.42h-27Z"/><path class="cls-11" d="M518.46,258.82H491.67a3.65,3.65,0,1,1,0-7.3h26.79a3.65,3.65,0,0,1,0,7.3ZM491.67,254a1.22,1.22,0,0,0,0,2.44h26.79a1.22,1.22,0,1,0,0-2.44Z"/><path class="cls-11" d="M491.67,305.1a1.22,1.22,0,0,1-1.22-1.22h0V282a1.22,1.22,0,1,1,2.44,0v21.91a1.22,1.22,0,0,1-1.22,1.22h0Z"/><path class="cls-11" d="M518.46,305.1a1.23,1.23,0,0,1-1.22-1.22V282a1.22,1.22,0,1,1,2.44,0v21.91a1.23,1.23,0,0,1-1.22,1.22Z"/><path class="cls-11" d="M508.72,305.1h-7.31a1.22,1.22,0,0,1-1.22-1.22h0V291.7a1.22,1.22,0,0,1,1.22-1.22h7.31a1.22,1.22,0,0,1,1.22,1.22h0v12.18a1.22,1.22,0,0,1-1.22,1.22Zm-6.09-2.43h4.87v-9.74h-4.87Z"/><path class="cls-11" d="M501.41,297.79H499a1.22,1.22,0,1,1,0-2.44h2.43a1.22,1.22,0,1,1,0,2.44Z"/><path class="cls-11" d="M501.41,302.67H499a1.22,1.22,0,1,1,0-2.44h2.43a1.22,1.22,0,1,1,0,2.44Z"/><path class="cls-11" d="M511.15,297.79h-2.43a1.22,1.22,0,1,1,0-2.44h2.43a1.22,1.22,0,1,1,0,2.44Z"/><path class="cls-11" d="M511.15,302.67h-2.43a1.22,1.22,0,1,1,0-2.44h2.43a1.22,1.22,0,1,1,0,2.44Z"/><path class="cls-11" d="M723.23,443.52a6.37,6.37,0,1,1,6.36-6.38v0A6.38,6.38,0,0,1,723.23,443.52Zm0-10.19a3.83,3.83,0,1,0,3.82,3.83A3.83,3.83,0,0,0,723.23,433.33Z"/><path class="cls-11" d="M725.2,453.7h-4a2.5,2.5,0,0,1-2.49-2.29l-.32-3.24a12.13,12.13,0,0,1-2.11-1.26l-2.85,1.32a2.47,2.47,0,0,1-3.23-1.06l-2-3.51a2.58,2.58,0,0,1,.7-3.32l2.55-1.89a9.36,9.36,0,0,1-.09-1.3,9.58,9.58,0,0,1,.09-1.3L709,434a2.59,2.59,0,0,1-.7-3.33l2-3.51a2.47,2.47,0,0,1,3.23-1.05l2.85,1.32a11.89,11.89,0,0,1,2.11-1.26l.32-3.24a2.5,2.5,0,0,1,2.49-2.3h4a2.51,2.51,0,0,1,2.5,2.3l.31,3.24a11.89,11.89,0,0,1,2.11,1.26l2.86-1.32a2.46,2.46,0,0,1,3.22,1.06l2,3.51a2.59,2.59,0,0,1-.71,3.32l-2.54,1.88c.05.43.07.86.08,1.3a11.48,11.48,0,0,1-.08,1.3l2.54,1.89a2.58,2.58,0,0,1,.71,3.32l-2,3.51a2.48,2.48,0,0,1-3.22,1.06l-2.86-1.33a12.13,12.13,0,0,1-2.11,1.26l-.31,3.25a2.52,2.52,0,0,1-2.5,2.29Zm-8.69-9.56a1.39,1.39,0,0,1,.83.31,9.23,9.23,0,0,0,2.74,1.65,1.26,1.26,0,0,1,.82,1.07l.39,4h3.91l.35-4a1.28,1.28,0,0,1,.82-1.07,9.23,9.23,0,0,0,2.74-1.65,1.29,1.29,0,0,1,1.37-.19l3.57,1.66,1.9-3.51-3.15-2.36a1.25,1.25,0,0,1-.5-1.23,10.37,10.37,0,0,0,.16-1.66,10,10,0,0,0-.16-1.65,1.26,1.26,0,0,1,.5-1.24l3.16-2.34-2-3.54-3.5,1.67a1.31,1.31,0,0,1-1.37-.19,9,9,0,0,0-2.74-1.65,1.28,1.28,0,0,1-.82-1.06l-.39-4h-3.91l-.35,4a1.24,1.24,0,0,1-.82,1.06,9.23,9.23,0,0,0-2.74,1.65,1.3,1.3,0,0,1-1.36.19l-3.57-1.66-1.91,3.51,3.16,2.36a1.29,1.29,0,0,1,.5,1.23,9.16,9.16,0,0,0-.17,1.66,9.35,9.35,0,0,0,.17,1.66,1.33,1.33,0,0,1-.5,1.24l-3.16,2.34,2,3.54,3.51-1.67a1.24,1.24,0,0,1,.53-.12Z"/><path class="cls-11" d="M704.13,466.44H686.31a1.27,1.27,0,0,1-1.27-1.27h0V444.79a6.35,6.35,0,0,1,6.36-6.35H699a1.27,1.27,0,1,1,0,2.54h-7.6a3.83,3.83,0,0,0-3.82,3.82v19.1h15.28v-14a1.27,1.27,0,1,1,2.54,0v15.28a1.27,1.27,0,0,1-1.27,1.27h0Z"/><path class="cls-11" d="M699,476.63h-7.6a1.29,1.29,0,0,1-1.23-1l-2.55-10.18a1.25,1.25,0,0,1,.23-1.09,1.26,1.26,0,0,1,1-.49h12.73a1.24,1.24,0,0,1,1,.49,1.28,1.28,0,0,1,.23,1.09l-2.55,10.18a1.29,1.29,0,0,1-1.23,1Zm-6.64-2.55H698l1.91-7.64h-9.47Z"/><path class="cls-11" d="M695.22,481.72a1.27,1.27,0,0,1-1.27-1.27h0v-5.1a1.27,1.27,0,1,1,2.54,0v5.12a1.27,1.27,0,0,1-1.27,1.27Z"/><path class="cls-11" d="M686.31,448.61h-7.64a1.27,1.27,0,0,1,0-2.54h7.64a1.27,1.27,0,0,1,0,2.54Z"/><path class="cls-11" d="M699,448.61h-7.6a1.27,1.27,0,0,1,0-2.54H699a1.27,1.27,0,0,1,0,2.54Z"/><path class="cls-11" d="M699,456.26h-7.6a1.29,1.29,0,0,1-1.16-1.39,1.26,1.26,0,0,1,1.16-1.16H699a1.28,1.28,0,0,1,0,2.55Z"/><path class="cls-16" d="M1164.35,68.4a3,3,0,0,1,3-3h19.24a3,3,0,0,1,3,3v12a3,3,0,0,1-3,3h-6.25l1.81,3.61h.83a.6.6,0,1,1,0,1.19h-12a.6.6,0,1,1,0-1.19h.83l1.81-3.61h-6.24a3,3,0,0,1-3-3Zm1.2,11.41v.6a1.81,1.81,0,0,0,1.81,1.81h19.24a1.8,1.8,0,0,0,1.8-1.81v-.6Zm22.85-1.19h-22.85V68.4a1.81,1.81,0,0,1,1.81-1.81h19.24a1.8,1.8,0,0,1,1.8,1.81Zm-13.46,4.81-1.8,3.61h7.67l-1.8-3.61Z"/><path class="cls-11" d="M1155.52,468.45h-5.46c-1.27,0-2.73-1.09-2.73-3.27v-3.82a6.31,6.31,0,0,0-2.36-4.73,12.58,12.58,0,0,1-4.92-10.19,13,13,0,0,1,12.56-12.56,12.76,12.76,0,0,1,9.09,3.64,13,13,0,0,1,3.83,9.1,12.21,12.21,0,0,1-4.74,9.82,6.64,6.64,0,0,0-2.54,5.1v4.18a2.81,2.81,0,0,1-2.73,2.73Zm-2.73-32.75a11.15,11.15,0,0,0-10.92,10.74,10.69,10.69,0,0,0,4.19,8.73,7.94,7.94,0,0,1,3.09,6.19v3.82c0,.36,0,1.45.91,1.45h5.46a.87.87,0,0,0,.91-.81v-4.28a8.79,8.79,0,0,1,3.27-6.55,10.62,10.62,0,0,0,4-8.37,10.92,10.92,0,0,0-3.28-7.83,10.69,10.69,0,0,0-7.64-3.09Z"/><path class="cls-11" d="M1157.34,463h-9.1a.92.92,0,0,1,0-1.83h9.1a.92.92,0,0,1,0,1.83Z"/><path class="cls-11" d="M1152.79,430.23a.86.86,0,0,1-.91-.8v-3.75a.91.91,0,0,1,1.82,0v3.64a.85.85,0,0,1-.81.91Z"/><path class="cls-11" d="M1165,435.33a1.09,1.09,0,0,1-.73-.17.9.9,0,0,1,0-1.26l0,0,2.55-2.55a.9.9,0,0,1,1.28,0,.91.91,0,0,1,0,1.28l-2.54,2.55A2.07,2.07,0,0,1,1165,435.33Z"/><path class="cls-11" d="M1173.71,447.52h-3.64a.91.91,0,0,1,0-1.82h3.64a.91.91,0,1,1,0,1.82Z"/><path class="cls-11" d="M1167.53,462.26a1,1,0,0,1-.73-.19l-2.55-2.54a.91.91,0,0,1-.13-1.28.92.92,0,0,1,1.28-.13l.13.13,2.54,2.55a.87.87,0,0,1,0,1.23s0,0,0,0c0,.19-.18.19-.54.19Z"/><path class="cls-11" d="M1138.05,462.26a1.05,1.05,0,0,1-.73-.19.88.88,0,0,1,0-1.24l0,0,2.55-2.54a.9.9,0,0,1,1.28,0,.91.91,0,0,1,0,1.28l-2.54,2.54a.69.69,0,0,1-.55.19Z"/><path class="cls-11" d="M1135.5,447.52h-3.64a.91.91,0,0,1,0-1.82h3.64a.91.91,0,1,1,0,1.82Z"/><path class="cls-11" d="M1140.6,435.33a1.09,1.09,0,0,1-.73-.17l-2.55-2.74a.91.91,0,0,1,.13-1.28.92.92,0,0,1,1.15,0l2.54,2.55a.87.87,0,0,1,0,1.23l0,0c-.18.19-.36.37-.54.37Z"/><path class="cls-11" d="M1160.07,447.52a.86.86,0,0,1-.91-.8v-.11a6.44,6.44,0,0,0-6.37-6.36.92.92,0,0,1,0-1.83h0a8.17,8.17,0,0,1,8.19,8.13v.06a.87.87,0,0,1-.83.91Z"/><path class="cls-11" d="M289,127H271.2a.59.59,0,0,1-.59-.59h0a.57.57,0,0,1,.57-.59s0,0,0,0H289a.57.57,0,0,1,.59.56v0a.58.58,0,0,1-.58.59Z"/><path class="cls-11" d="M286.65,131.74H273.58a3,3,0,0,1-3-3V106.19a3,3,0,0,1,3-3h13.07a3,3,0,0,1,3,3,.58.58,0,0,1-.59.58.59.59,0,0,1-.6-.58,1.79,1.79,0,0,0-1.78-1.79h-13.1a1.78,1.78,0,0,0-1.79,1.78h0v22.58a1.8,1.8,0,0,0,1.79,1.78h13.07a1.78,1.78,0,0,0,1.78-1.78v-3.58a.59.59,0,0,1,.6-.58.58.58,0,0,1,.59.58v3.58a3,3,0,0,1-3,3Z"/><path class="cls-11" d="M289.93,119.66a.69.69,0,0,1-.42-.17l-4.28-4.28a.6.6,0,0,1,0-.81l3.5-3.89a14.32,14.32,0,0,1,9.82-4.92.55.55,0,0,1,.43.18.6.6,0,0,1,.17.43,14.34,14.34,0,0,1-4.92,9.82l-3.88,3.49a.64.64,0,0,1-.4.15Zm-3.46-4.89,3.48,3.48,3.47-3.12a13.41,13.41,0,0,0,4.49-8.31,13.3,13.3,0,0,0-8.3,4.48Z"/><path class="cls-11" d="M291.53,122.48h-.16A.61.61,0,0,1,291,122l-.84-3.52a.6.6,0,0,1,.44-.72.61.61,0,0,1,.72.44l.55,2.34a9.64,9.64,0,0,0,1.26-4.89.6.6,0,0,1,.6-.59h0a.58.58,0,0,1,.58.58v0a9.46,9.46,0,0,1-2.32,6.61.59.59,0,0,1-.42.17Z"/><path class="cls-11" d="M286.34,114.62h-.14l-3.5-.83a.6.6,0,0,1-.44-.42.62.62,0,0,1,.16-.58,9.43,9.43,0,0,1,6.6-2.32.64.64,0,0,1,.61.58.62.62,0,0,1-.59.61,9.64,9.64,0,0,0-4.89,1.26l2.33.56a.57.57,0,0,1,.44.68v0a.61.61,0,0,1-.58.46Z"/><path class="cls-11" d="M281.9,123.41a.58.58,0,0,1-.6-.58.57.57,0,0,1,0-.18c.19-.66,1.21-4,2-4.77a2.47,2.47,0,0,1,3.64,3.35l-.15.14c-.79.81-4.11,1.82-4.76,2h-.17Zm3.19-5a1.25,1.25,0,0,0-.91.37,13.4,13.4,0,0,0-1.37,3.18,12.64,12.64,0,0,0,3.18-1.37,1.28,1.28,0,0,0,0-1.81A1.22,1.22,0,0,0,285.09,118.36Z"/><path class="cls-11" d="M964.64,113.8a2.3,2.3,0,1,1,2.3-2.31h0A2.31,2.31,0,0,1,964.64,113.8Zm0-3.68a1.38,1.38,0,1,0,1.36,1.39h0a1.38,1.38,0,0,0-1.38-1.38h0Z"/><path class="cls-11" d="M964.64,131.27a2.3,2.3,0,1,1,2.3-2.31h0A2.3,2.3,0,0,1,964.64,131.27Zm0-3.68A1.38,1.38,0,1,0,966,129a1.37,1.37,0,0,0-1.36-1.41h0Z"/><path class="cls-11" d="M982.11,113.8a2.3,2.3,0,1,1,2.3-2.31h0A2.31,2.31,0,0,1,982.11,113.8Zm0-3.68a1.38,1.38,0,1,0,1.38,1.38,1.38,1.38,0,0,0-1.38-1.38Z"/><path class="cls-11" d="M982.11,131.27a2.3,2.3,0,1,1,2.3-2.31h0A2.3,2.3,0,0,1,982.11,131.27Zm0-3.68a1.38,1.38,0,1,0,1.38,1.38,1.38,1.38,0,0,0-1.38-1.38Z"/><path class="cls-11" d="M973.37,128.5a8.28,8.28,0,1,1,8.28-8.27h0A8.28,8.28,0,0,1,973.37,128.5Zm0-15.63a7.36,7.36,0,1,0,7.36,7.37h0A7.37,7.37,0,0,0,973.37,112.87Z"/><path class="cls-11" d="M973.37,128.5a.48.48,0,0,1-.32-.13,11.6,11.6,0,0,1,0-16.28.47.47,0,0,1,.65,0,.46.46,0,0,1,0,.65l0,0a10.67,10.67,0,0,0,0,15,.45.45,0,0,1-.33.78Z"/><path class="cls-11" d="M973.37,128.5a.4.4,0,0,1-.32-.13.46.46,0,0,1,0-.65,10.68,10.68,0,0,0,0-15,.45.45,0,0,1-.08-.64.46.46,0,0,1,.65-.08l.08.08a11.58,11.58,0,0,1,0,16.27.47.47,0,0,1-.33.14Z"/><path class="cls-11" d="M980.85,118.4h-15a.48.48,0,0,1-.46-.46.46.46,0,0,1,.46-.46h15a.45.45,0,0,1,.46.45h0A.48.48,0,0,1,980.85,118.4Z"/><path class="cls-11" d="M980.85,123h-15a.47.47,0,0,1-.46-.46h0a.47.47,0,0,1,.46-.46h15a.46.46,0,1,1,0,.92Z"/><path class="cls-11" d="M51.34,85.19h-.16a2,2,0,0,1-1.44-.8l-2.82-3.88a2.42,2.42,0,0,0-.32-.32l-4.15-3a2,2,0,0,1-.8-1.44,2,2,0,0,1,.57-1.55,2.11,2.11,0,0,1,2.31-.43l3.37,1.47,6.56-7.07a.7.7,0,0,0,.19-.62.77.77,0,0,0-.36-.55l-11-5.82a2.07,2.07,0,0,1-.75-2.85,1.92,1.92,0,0,1,.32-.43,1.85,1.85,0,0,1,1.66-.49l16.07,3.41a.75.75,0,0,0,.72-.22l5.76-6.12a3.69,3.69,0,0,1,2.6-1,3.28,3.28,0,0,1,3.7,2.78,2.9,2.9,0,0,1,0,.93,3.61,3.61,0,0,1-.94,2.59l-6.14,5.79a.77.77,0,0,0-.22.73l3.69,16.25a1.76,1.76,0,0,1-.48,1.69,2.09,2.09,0,0,1-3,0,2.51,2.51,0,0,1-.32-.41L59.89,72.51a.77.77,0,0,0-1.09-.18l-.06,0-7.05,6.56,1.47,3.37a2.07,2.07,0,0,1-.43,2.31A2,2,0,0,1,51.34,85.19ZM43.7,74.86a.79.79,0,0,0-.54.22.61.61,0,0,0-.19.51.67.67,0,0,0,.26.49l4.15,3a2.44,2.44,0,0,1,.6.6l2.83,3.87a.6.6,0,0,0,.47.26.56.56,0,0,0,.51-.19.73.73,0,0,0,.16-.83L50.29,79a.66.66,0,0,1,.16-.75l7.39-6.88a2.08,2.08,0,0,1,2.94.11,2.51,2.51,0,0,1,.25.32l6.14,11.39a.7.7,0,0,0,.54.32.74.74,0,0,0,.63-.22.52.52,0,0,0,.13-.45l-3.7-16.25a2.08,2.08,0,0,1,.61-2l6.13-5.78A2.38,2.38,0,0,0,72,57.16a2.69,2.69,0,0,0-.54-1.83,2.64,2.64,0,0,0-1.82-.53,2.53,2.53,0,0,0-1.66.52l-5.75,6.12a2.08,2.08,0,0,1-2,.61l-16.06-3.4a.5.5,0,0,0-.45.13A.76.76,0,0,0,43.86,60l11,5.83a2,2,0,0,1,1,1.51,2,2,0,0,1-.53,1.7l-6.88,7.41a.64.64,0,0,1-.75.16L44,74.93A.53.53,0,0,0,43.7,74.86ZM72,59.29Z"/><path class="cls-11" d="M269.18,329.76H246.79a1.12,1.12,0,0,0-1.12,1.12v22.39a1.12,1.12,0,0,0,1.12,1.12h22.39a1.12,1.12,0,0,0,1.12-1.12V330.89a1.12,1.12,0,0,0-1.12-1.12Zm-1.12,22.39H247.91V332h20.15Z"/><path class="cls-11" d="M281.5,332a1.12,1.12,0,1,0,0-2.24H277v-2.24h4.48a1.12,1.12,0,0,0,1.12-1.12,1.1,1.1,0,0,0-1.11-1.12H277v-1.12a1.12,1.12,0,0,0-1.12-1.12h-1.12v-5.59a1.12,1.12,0,1,0-2.24,0h0V323H270.3v-5.59a1.12,1.12,0,0,0-2.24,0V323h-2.24v-5.59a1.12,1.12,0,0,0-2.24,0V323h-2.24v-5.59a1.12,1.12,0,1,0-2.23-.22.81.81,0,0,0,0,.22V323h-2.24v-5.59a1.12,1.12,0,0,0-2.24,0V323h-2.24v-5.59a1.12,1.12,0,1,0-2.24,0V323h-2.24v-5.59a1.12,1.12,0,0,0-2.24,0V323h-2.24v-5.59a1.12,1.12,0,0,0-2.24,0V323h-1.12a1.12,1.12,0,0,0-1.12,1.12v1.12h-4.48a1.12,1.12,0,0,0-1.12,1.12,1.14,1.14,0,0,0,1.12,1.12H239v2.24h-4.48a1.12,1.12,0,0,0-1.12,1.12,1.14,1.14,0,0,0,1.12,1.12H239v2.23h-4.48a1.12,1.12,0,1,0,0,2.24H239v2.24h-4.48a1.12,1.12,0,1,0,0,2.24H239v2.24h-4.48a1.12,1.12,0,1,0,0,2.24H239v2.23h-4.48a1.12,1.12,0,1,0,0,2.24H239v2.24h-4.48a1.12,1.12,0,1,0,0,2.24H239v2.24h-4.48a1.12,1.12,0,1,0,0,2.24H239V360a1.12,1.12,0,0,0,1.12,1.11h1.12v3.36a1.12,1.12,0,1,0,2.24,0v-3.36h2.24v3.36a1.12,1.12,0,1,0,2.24,0v-3.36h2.24v3.36a1.12,1.12,0,1,0,2.24,0v-3.36h2.24v3.36a1.12,1.12,0,1,0,2.24,0v-3.36h2.24v3.36a1.12,1.12,0,1,0,2.23.22.81.81,0,0,0,0-.22v-3.36h2.24v3.36a1.12,1.12,0,1,0,2.24,0v-3.36h2.24v3.36a1.12,1.12,0,1,0,2.24,0v-3.36h2.24v3.36a1.12,1.12,0,1,0,2.24,0v-3.36H276A1.11,1.11,0,0,0,277,360v-1.12h4.48a1.12,1.12,0,1,0,0-2.24H277v-2.25h4.48a1.12,1.12,0,1,0,0-2.23H277v-2.24h4.48a1.12,1.12,0,1,0,0-2.24H277v-2.23h4.48a1.12,1.12,0,1,0,0-2.24H277V341h4.48a1.12,1.12,0,1,0,0-2.24H277v-2.24h4.48a1.12,1.12,0,1,0,0-2.24H277V332Zm-6.72,26.86H241.19V325.29h33.59Z"/><path class="cls-11" d="M874.6,115.77a6.14,6.14,0,1,1,6.13-6.14h0A6.13,6.13,0,0,1,874.6,115.77Zm0-9.82a3.69,3.69,0,1,0,3.68,3.7v0A3.69,3.69,0,0,0,874.6,106Z"/><path class="cls-11" d="M876.5,125.58h-3.81a2.41,2.41,0,0,1-2.4-2.21l-.3-3.12a10.49,10.49,0,0,1-2-1.22l-2.75,1.28a2.38,2.38,0,0,1-3.11-1l-1.9-3.39a2.48,2.48,0,0,1,.68-3.2l2.45-1.81a9.59,9.59,0,0,1,0-2.51l-2.45-1.82a2.46,2.46,0,0,1-.68-3.19l1.9-3.39a2.4,2.4,0,0,1,3.11-1l2.75,1.28A10.86,10.86,0,0,1,870,99l.3-3.13a2.42,2.42,0,0,1,2.4-2.22h3.81a2.42,2.42,0,0,1,2.4,2.22l.31,3.13a10.49,10.49,0,0,1,2,1.22L884,99a2.37,2.37,0,0,1,3.11,1l1.9,3.38a2.48,2.48,0,0,1-.67,3.2l-2.46,1.82a9.59,9.59,0,0,1,0,2.51l2.46,1.81a2.47,2.47,0,0,1,.67,3.19l-1.9,3.39a2.39,2.39,0,0,1-3.11,1l-2.76-1.3a10.93,10.93,0,0,1-2,1.2l-.31,3.13a2.41,2.41,0,0,1-2.4,2.21Zm-8.37-9.21a1.17,1.17,0,0,1,.79.31,9.36,9.36,0,0,0,2.65,1.58,1.23,1.23,0,0,1,.79,1l.37,3.85h3.77l.34-3.85a1.2,1.2,0,0,1,.79-1,9.31,9.31,0,0,0,2.64-1.58,1.21,1.21,0,0,1,1.31-.2l3.44,1.6,1.84-3.38-3-2.27a1.24,1.24,0,0,1-.48-1.2,8.15,8.15,0,0,0,0-3.19,1.23,1.23,0,0,1,.48-1.19l3-2.26-1.86-3.4-3.38,1.61a1.25,1.25,0,0,1-1.32-.19,8.78,8.78,0,0,0-2.64-1.59,1.23,1.23,0,0,1-.79-1l-.37-3.84h-3.77L872.4,100a1.23,1.23,0,0,1-.79,1,9.17,9.17,0,0,0-2.65,1.59,1.23,1.23,0,0,1-1.31.19l-3.44-1.6-1.84,3.38,3,2.26a1.24,1.24,0,0,1,.48,1.2,8,8,0,0,0,0,3.19,1.24,1.24,0,0,1-.48,1.2l-3,2.26,1.9,3.41,3.38-1.61a1.16,1.16,0,0,1,.52-.11Z"/><path class="cls-11" d="M896.68,142.77H852.51a7.36,7.36,0,0,1,0-14.72h44.17a7.36,7.36,0,1,1,0,14.72ZM852.51,130.5a4.91,4.91,0,1,0,0,9.82h44.17a4.91,4.91,0,1,0,0-9.82H852.51Z"/><path class="cls-11" d="M852.51,137.86a2.45,2.45,0,1,1,2.45-2.45A2.46,2.46,0,0,1,852.51,137.86Z"/><path class="cls-11" d="M867.23,137.86a2.45,2.45,0,1,1,2.46-2.45,2.46,2.46,0,0,1-2.46,2.45Z"/><path class="cls-11" d="M882,137.86a2.45,2.45,0,1,1,2.45-2.45A2.46,2.46,0,0,1,882,137.86Z"/><path class="cls-11" d="M896.68,137.86a2.45,2.45,0,1,1,2.45-2.45A2.46,2.46,0,0,1,896.68,137.86Z"/></g></svg>