<svg xmlns="http://www.w3.org/2000/svg" viewBox="0 0 1416.28 247.17"><defs><style>.cls-1,.cls-11,.cls-20,.cls-25,.cls-30,.cls-38,.cls-44,.cls-46,.cls-51{font-size:22px;font-family:Lato-Regular, Lato Regular;}.cls-1,.cls-10,.cls-11,.cls-20,.cls-25,.cls-30,.cls-38,.cls-44,.cls-51{fill:#7b7c7e;}.cls-1{letter-spacing:-0.02em;}.cls-2{letter-spacing:-0.02em;}.cls-3{letter-spacing:-0.03em;}.cls-4{letter-spacing:-0.03em;}.cls-5{letter-spacing:-0.04em;}.cls-6{letter-spacing:-0.04em;}.cls-7{letter-spacing:-0.03em;}.cls-8{letter-spacing:-0.02em;}.cls-49,.cls-9{fill:none;stroke-miterlimit:10;stroke-width:5px;}.cls-9{stroke:#7b7c7e;}.cls-11,.cls-36{letter-spacing:-0.04em;}.cls-12{letter-spacing:-0.03em;}.cls-13{letter-spacing:-0.03em;}.cls-14,.cls-20{letter-spacing:-0.03em;}.cls-15{letter-spacing:-0.03em;}.cls-16{letter-spacing:-0.03em;}.cls-17{letter-spacing:-0.03em;}.cls-18{letter-spacing:-0.03em;}.cls-19{letter-spacing:-0.02em;}.cls-21{letter-spacing:-0.04em;}.cls-22{letter-spacing:-0.02em;}.cls-23{letter-spacing:-0.04em;}.cls-24{letter-spacing:-0.03em;}.cls-25{letter-spacing:-0.04em;}.cls-26{letter-spacing:-0.04em;}.cls-27{letter-spacing:0em;}.cls-28,.cls-30{letter-spacing:-0.04em;}.cls-29{letter-spacing:-0.03em;}.cls-31{letter-spacing:0em;}.cls-32{letter-spacing:-0.03em;}.cls-33{letter-spacing:-0.04em;}.cls-34{letter-spacing:-0.03em;}.cls-35{letter-spacing:-0.09em;}.cls-37{letter-spacing:-0.03em;}.cls-38{letter-spacing:-0.03em;}.cls-39{letter-spacing:-0.03em;}.cls-40{letter-spacing:-0.03em;}.cls-41{letter-spacing:-0.04em;}.cls-42{letter-spacing:-0.04em;}.cls-43{letter-spacing:-0.04em;}.cls-44{letter-spacing:-0.03em;}.cls-45{letter-spacing:-0.03em;}.cls-46,.cls-50{fill:#55ade2;}.cls-46{letter-spacing:-0.03em;}.cls-47{letter-spacing:-0.02em;}.cls-48,.cls-51{letter-spacing:-0.01em;}.cls-49{stroke:#55ade2;}.cls-52{letter-spacing:-0.05em;}.cls-53{letter-spacing:-0.03em;}.cls-54{letter-spacing:-0.04em;}.cls-55{letter-spacing:-0.03em;}.cls-56{letter-spacing:-0.04em;}</style></defs><g id="Layer_2" data-name="Layer 2"><g id="Layer_1-2" data-name="Layer 1"><text class="cls-1" transform="translate(28.16 226.84)">O<tspan class="cls-2" x="14.61" y="0">p</tspan><tspan class="cls-3" x="26.65" y="0">e</tspan><tspan class="cls-4" x="36.99" y="0">r</tspan><tspan class="cls-5" x="43.55" y="0">a</tspan><tspan class="cls-6" x="53.3" y="0">t</tspan><tspan class="cls-7" x="59.67" y="0">o</tspan><tspan class="cls-8" x="71.09" y="0">r</tspan></text><polyline class="cls-9" points="2.5 247.17 2.5 182.5 131.88 182.5"/><polygon class="cls-10" points="131.88 162.5 131.88 174.5 119.88 174.5 131.88 162.5"/><text class="cls-11" transform="translate(171.84 194.34)">L<tspan class="cls-12" x="9.6" y="0">e</tspan><tspan class="cls-13" x="19.88" y="0">a</tspan><tspan class="cls-14" x="29.84" y="0">d</tspan><tspan x="41.48" y="0">i</tspan><tspan class="cls-15" x="45.84" y="0">n</tspan><tspan class="cls-8" x="57.38" y="0">g</tspan><tspan class="cls-16"><tspan x="11.09" y="25">H</tspan><tspan class="cls-17" x="24.8" y="25">a</tspan><tspan class="cls-18" x="34.64" y="25">n</tspan><tspan class="cls-19" x="46.19" y="25">d</tspan></tspan></text><polyline class="cls-9" points="141.88 227.17 141.88 162.5 271.26 162.5"/><polygon class="cls-10" points="271.26 142.5 271.26 154.5 259.26 154.5 271.26 142.5"/><text class="cls-20" transform="translate(307.25 186.84)">A<tspan class="cls-21" x="12.7" y="0">r</tspan><tspan class="cls-12" x="19.12" y="0">e</tspan><tspan class="cls-22" x="29.4" y="0">a </tspan><tspan class="cls-23" x="43.74" y="0">S</tspan><tspan class="cls-24" x="53.73" y="0">u</tspan><tspan class="cls-8" x="65.1" y="0">p</tspan></text><polyline class="cls-9" points="281.26 207.17 281.26 142.5 410.63 142.5"/><polygon class="cls-10" points="410.63 122.5 410.63 134.5 398.63 134.5 410.63 122.5"/><text class="cls-25" transform="translate(446.77 166.84)">S<tspan class="cls-26" x="10.05" y="0">h</tspan><tspan class="cls-3" x="21.48" y="0">i</tspan><tspan class="cls-27" x="25.96" y="0">f</tspan><tspan class="cls-8" x="32.42" y="0">t </tspan><tspan class="cls-28" x="43.44" y="0">S</tspan><tspan class="cls-29" x="53.43" y="0">u</tspan><tspan class="cls-8" x="64.8" y="0">p</tspan></text><polyline class="cls-9" points="420.63 187.17 420.63 122.5 550.01 122.5"/><polygon class="cls-10" points="550.01 102.5 550.01 114.5 538.01 114.5 550.01 102.5"/><text class="cls-30" transform="translate(578.86 134.34)">S<tspan class="cls-29" x="9.99" y="0">u</tspan><tspan class="cls-2" x="21.36" y="0">p</tspan><tspan class="cls-3" x="33.4" y="0">e</tspan><tspan class="cls-31" x="43.74" y="0">r</tspan><tspan class="cls-32" x="50.93" y="0">v</tspan><tspan class="cls-33" x="60.91" y="0">i</tspan><tspan class="cls-34" x="65.22" y="0">s</tspan><tspan class="cls-18" x="73.29" y="0">o</tspan><tspan class="cls-8" x="84.71" y="0">r</tspan><tspan class="cls-35"><tspan x="16.59" y="25">T</tspan><tspan class="cls-4" x="25.45" y="25">r</tspan><tspan class="cls-26" x="32" y="25">a</tspan><tspan class="cls-36" x="41.83" y="25">i</tspan><tspan class="cls-37" x="46.19" y="25">n</tspan><tspan class="cls-3" x="57.77" y="25">e</tspan><tspan class="cls-8" x="68.12" y="25">r</tspan></tspan></text><polyline class="cls-9" points="560.01 167.17 560.01 102.5 689.39 102.5"/><polygon class="cls-10" points="689.39 82.5 689.39 94.5 677.39 94.5 689.39 82.5"/><text class="cls-38" transform="translate(736.64 114.34)">S<tspan class="cls-39" x="10.23" y="0">e</tspan><tspan class="cls-26" x="20.57" y="0">n</tspan><tspan class="cls-40" x="32.01" y="0">i</tspan><tspan class="cls-18" x="36.48" y="0">o</tspan><tspan class="cls-8" x="47.9" y="0">r</tspan><tspan class="cls-28"><tspan x="-18.41" y="25">S</tspan><tspan class="cls-29" x="-8.42" y="25">u</tspan><tspan class="cls-2" x="2.95" y="25">p</tspan><tspan class="cls-3" x="14.99" y="25">e</tspan><tspan class="cls-31" x="25.33" y="25">r</tspan><tspan class="cls-32" x="32.52" y="25">v</tspan><tspan class="cls-33" x="42.5" y="25">i</tspan><tspan class="cls-34" x="46.82" y="25">s</tspan><tspan class="cls-18" x="54.88" y="25">o</tspan><tspan class="cls-8" x="66.3" y="25">r</tspan></tspan></text><polyline class="cls-9" points="699.39 147.17 699.39 82.5 828.77 82.5"/><polygon class="cls-10" points="828.77 62.5 828.77 74.5 816.77 74.5 828.77 62.5"/><text class="cls-30" transform="translate(851.1 106.84)">S<tspan class="cls-29" x="9.99" y="0">u</tspan><tspan class="cls-2" x="21.36" y="0">p</tspan><tspan class="cls-3" x="33.4" y="0">er</tspan><tspan class="cls-41" x="50.26" y="0">i</tspan><tspan class="cls-42" x="54.62" y="0">n</tspan><tspan class="cls-43" x="65.95" y="0">t</tspan><tspan class="cls-3" x="72.33" y="0">e</tspan><tspan class="cls-7" x="82.68" y="0">nd</tspan><tspan class="cls-3" x="105.98" y="0">e</tspan><tspan class="cls-42" x="116.33" y="0">n</tspan><tspan class="cls-8" x="127.65" y="0">t</tspan></text><polyline class="cls-9" points="838.77 127.17 838.77 62.5 998.15 62.5"/><polygon class="cls-10" points="998.15 42.5 998.15 54.5 986.15 54.5 998.15 42.5"/><text class="cls-44" transform="translate(1034.22 86.84)">M<tspan class="cls-17" x="17.08" y="0">an</tspan><tspan class="cls-45" x="38.36" y="0">a</tspan><tspan class="cls-7" x="48.27" y="0">g</tspan><tspan class="cls-3" x="59.91" y="0">e</tspan><tspan class="cls-8" x="70.25" y="0">r</tspan></text><polyline class="cls-9" points="1008.15 107.17 1008.15 42.5 1137.52 42.5"/><polygon class="cls-10" points="1137.52 22.5 1137.52 34.5 1125.52 34.5 1137.52 22.5"/><text class="cls-46" transform="translate(1177.35 66.84)">D<tspan class="cls-41" x="14.01" y="0">i</tspan><tspan class="cls-21" x="18.37" y="0">r</tspan><tspan class="cls-47" x="24.79" y="0">e</tspan><tspan class="cls-48" x="35.31" y="0">c</tspan><tspan class="cls-6" x="44.96" y="0">t</tspan><tspan class="cls-7" x="51.33" y="0">o</tspan><tspan class="cls-8" x="62.75" y="0">r</tspan></text><polyline class="cls-49" points="1147.52 87.17 1147.52 22.5 1276.9 22.5"/><polygon class="cls-50" points="1276.9 2.5 1276.9 14.5 1264.9 14.5 1276.9 2.5"/><text class="cls-51" transform="translate(1310.47 46.84)">E<tspan class="cls-52" x="10.62" y="0">x</tspan><tspan class="cls-47" x="19.81" y="0">e</tspan><tspan class="cls-36" x="30.33" y="0">c</tspan><tspan class="cls-53" x="39.4" y="0">u</tspan><tspan class="cls-54" x="50.83" y="0">t</tspan><tspan class="cls-55" x="57.31" y="0">i</tspan><tspan class="cls-56" x="61.8" y="0">v</tspan><tspan class="cls-22" x="71.44" y="0">e</tspan></text><polyline class="cls-9" points="1286.9 67.17 1286.9 2.5 1416.28 2.5"/></g></g></svg>