<?xml version="1.0" encoding="iso-8859-1"?>
<!-- Generator: Adobe Illustrator 19.0.0, SVG Export Plug-In . SVG Version: 6.00 Build 0)  -->
<svg version="1.1" id="Layer_1" xmlns="http://www.w3.org/2000/svg" xmlns:xlink="http://www.w3.org/1999/xlink" x="0px" y="0px"
	 viewBox="0 0 875.956 364.147" style="enable-background:new 0 0 875.956 364.147;" xml:space="preserve">
<g>
	<g>
		
			<line style="fill:none;stroke:#019F91;stroke-width:28.0076;stroke-linecap:round;stroke-linejoin:round;stroke-miterlimit:10;" x1="718.243" y1="159.954" x2="853.828" y2="24.369"/>
	</g>
	<g>
		
			<linearGradient id="SVGID_1_" gradientUnits="userSpaceOnUse" x1="552.152" y1="188.0926" x2="737.0911" y2="11.1557" gradientTransform="matrix(1.137 0.2071 0.2071 1.137 -103.7202 -98.7502)">
			<stop  offset="0" style="stop-color:#FFFFFF"/>
			<stop  offset="1" style="stop-color:#000000"/>
		</linearGradient>
		<polygon style="opacity:0.17;fill:url(#SVGID_1_);" points="619.549,270.317 526.107,176.875 632.803,70.179 726.245,163.621 		
			"/>
		
			<line style="fill:none;stroke:#D74656;stroke-width:28.0076;stroke-linecap:round;stroke-linejoin:round;stroke-miterlimit:10;" x1="487.513" y1="207.633" x2="623.099" y2="72.048"/>
		
			<line style="fill:none;stroke:#FF5D6C;stroke-width:28.0076;stroke-linecap:round;stroke-linejoin:round;stroke-miterlimit:10;" x1="626.669" y1="69.381" x2="718.243" y2="160.954"/>
	</g>
	<g>
		
			<linearGradient id="SVGID_2_" gradientUnits="userSpaceOnUse" x1="333.3055" y1="269.0179" x2="518.2446" y2="92.081" gradientTransform="matrix(1.137 0.2071 0.2071 1.137 -103.7202 -98.7502)">
			<stop  offset="0" style="stop-color:#FFFFFF"/>
			<stop  offset="1" style="stop-color:#000000"/>
		</linearGradient>
		<polygon style="opacity:0.17;fill:url(#SVGID_2_);" points="387.486,316.996 294.044,223.554 400.74,116.859 494.182,210.301 		
			"/>
		
			<line style="fill:none;stroke:#2C3854;stroke-width:28.0076;stroke-linecap:round;stroke-linejoin:round;stroke-miterlimit:10;" x1="255.45" y1="254.313" x2="391.036" y2="118.727"/>
		
			<line style="fill:none;stroke:#4A546E;stroke-width:28.0076;stroke-linecap:round;stroke-linejoin:round;stroke-miterlimit:10;" x1="394.606" y1="116.06" x2="486.18" y2="207.633"/>
	</g>
	<g>
		
			<linearGradient id="SVGID_3_" gradientUnits="userSpaceOnUse" x1="92.3029" y1="326.3531" x2="277.242" y2="149.4162" gradientTransform="matrix(1.1404 0.2105 0.2105 1.1404 -73.5009 -68.5306)">
			<stop  offset="0" style="stop-color:#FFFFFF"/>
			<stop  offset="1" style="stop-color:#000000"/>
		</linearGradient>
		<polygon style="opacity:0.17;fill:url(#SVGID_3_);" points="157.227,364.147 63.314,270.234 170.01,163.538 263.923,257.451 		"/>
		
			<line style="fill:none;stroke:#00A8DF;stroke-width:28.0076;stroke-linecap:round;stroke-linejoin:round;stroke-miterlimit:10;" x1="24.721" y1="300.992" x2="160.306" y2="165.407"/>
		
			<line style="fill:none;stroke:#0AC0EA;stroke-width:28.0076;stroke-linecap:round;stroke-linejoin:round;stroke-miterlimit:10;" x1="163.877" y1="162.739" x2="255.45" y2="254.313"/>
	</g>
	
		<polyline style="fill:none;stroke:#019F91;stroke-width:22.5061;stroke-linecap:round;stroke-linejoin:round;stroke-miterlimit:10;" points="
		800.932,13.248 860.948,13.248 860.948,73.264 	"/>
	<g>
		<g>
			<g>
				<path style="fill:#FFFFFF;" d="M690.889-16.813h-2.48v-2.507c0-0.428-0.347-0.775-0.775-0.775c-0.428,0-0.775,0.347-0.775,0.775
					v2.962l-3.238,3.247c-3.267-2.973-7.466-4.603-11.91-4.603c-4.732,0-9.18,1.843-12.526,5.188
					C655.84-9.18,653.997-4.732,653.997,0s1.843,9.18,5.188,12.526c0.52,0.52,1.068,1.004,1.638,1.451l-4.266,4.266
					c-0.302,0.302-0.302,0.793,0,1.096c0.151,0.151,0.35,0.227,0.548,0.227c0.198,0,0.397-0.076,0.548-0.227l4.45-4.45
					c2.837,1.839,6.146,2.826,9.607,2.826c3.478,0,6.802-0.997,9.649-2.853l4.477,4.477c0.151,0.151,0.349,0.227,0.548,0.227
					c0.198,0,0.396-0.076,0.548-0.227c0.302-0.302,0.303-0.793,0-1.096l-4.297-4.297c0.557-0.438,1.092-0.912,1.6-1.42
					c3.346-3.346,5.188-7.794,5.188-12.526c0-2.695-0.59-5.283-1.753-7.692c-0.186-0.385-0.649-0.547-1.034-0.361
					c-0.385,0.186-0.547,0.649-0.361,1.034c1.061,2.198,1.599,4.559,1.599,7.019c0,8.913-7.252,16.165-16.165,16.165
					S655.547,8.913,655.547,0c0-8.913,7.251-16.165,16.165-16.165c4.031,0,7.842,1.469,10.816,4.151l-2.719,2.726
					c-2.245-1.962-5.091-3.034-8.097-3.034c-6.794,0-12.322,5.527-12.322,12.322s5.528,12.322,12.322,12.322
					S684.033,6.794,684.033,0c0-1.096-0.144-2.183-0.428-3.231c-0.499-1.839-1.425-3.542-2.695-4.967l3.275-3.284
					c0.001-0.001,0.002-0.002,0.003-0.003c0.001-0.001,0.002-0.002,0.003-0.003l3.766-3.776h2.933c0.428,0,0.775-0.347,0.775-0.775
					C691.664-16.466,691.317-16.813,690.889-16.813z M682.11-2.825c0.248,0.916,0.374,1.867,0.374,2.825
					c0,5.94-4.832,10.772-10.772,10.772c-5.94,0-10.772-4.833-10.772-10.772s4.833-10.772,10.772-10.772
					c2.593,0,5.051,0.912,7.001,2.584l-3.198,3.207c-1.056-0.808-2.374-1.289-3.803-1.289c-3.458,0-6.271,2.813-6.271,6.271
					s2.813,6.271,6.271,6.271s6.271-2.813,6.271-6.271c0-1.472-0.511-2.825-1.363-3.896l3.194-3.203
					C680.893-5.866,681.682-4.403,682.11-2.825z M671.268,0.373c0.151,0.151,0.349,0.226,0.547,0.226
					c0.199,0,0.397-0.076,0.548-0.228l3.153-3.162c0.575,0.782,0.916,1.747,0.916,2.791c0,2.603-2.118,4.721-4.721,4.721
					S666.99,2.603,666.99,0s2.118-4.721,4.721-4.721c1.002,0,1.931,0.315,2.696,0.849l-3.141,3.15
					C670.964-0.42,670.965,0.071,671.268,0.373z"/>
			</g>
		</g>
		<g>
			<g>
				<circle style="fill:#FFFFFF;" cx="685.474" cy="-9.743" r="0.775"/>
			</g>
		</g>
	</g>
</g>
</svg>
