<?xml version="1.0" encoding="iso-8859-1"?>
<!-- Generator: Adobe Illustrator 19.0.0, SVG Export Plug-In . SVG Version: 6.00 Build 0)  -->
<svg version="1.1" id="Layer_1" xmlns="http://www.w3.org/2000/svg" xmlns:xlink="http://www.w3.org/1999/xlink" x="0px" y="0px"
	 viewBox="0 0 100 100" style="enable-background:new 0 0 100 100;" xml:space="preserve">
<linearGradient id="XMLID_21_" gradientUnits="userSpaceOnUse" x1="2.0573" y1="49.6586" x2="98.5668" y2="49.6586">
	<stop  offset="0" style="stop-color:#B8B8B8"/>
	<stop  offset="1" style="stop-color:#000000"/>
</linearGradient>
<circle id="XMLID_20_" style="opacity:0.1;fill:url(#XMLID_21_);" cx="50.312" cy="49.659" r="48.255"/>
<circle id="XMLID_19_" style="fill:#0EC0EA;" cx="50.312" cy="49.659" r="36.251"/>
<g id="XMLID_2_">
	<g id="XMLID_16_">
		<g id="XMLID_17_">
			<circle id="XMLID_18_" style="fill:#FFFFFF;" cx="36.543" cy="61.967" r="0.817"/>
		</g>
	</g>
	<g id="XMLID_13_">
		<g id="XMLID_14_">
			<circle id="XMLID_15_" style="fill:#FFFFFF;" cx="67.824" cy="52.227" r="0.817"/>
		</g>
	</g>
	<g id="XMLID_10_">
		<g id="XMLID_11_">
			<path id="XMLID_12_" style="fill:#FFFFFF;" d="M58.37,46.093h-0.474h-0.307h-0.474c-0.396,0-0.719-0.322-0.719-0.719v-0.729
				c0-0.396,0.323-0.719,0.719-0.719h1.39c0.322,0,0.584,0.262,0.584,0.584c0,0.451,0.366,0.817,0.817,0.817
				s0.817-0.366,0.817-0.817c0-1.204-0.965-2.187-2.163-2.216v-0.701c0-0.451-0.366-0.817-0.817-0.817
				c-0.451,0-0.817,0.366-0.817,0.817V42.3c-1.209,0.097-2.163,1.111-2.163,2.344v0.729c0,1.297,1.055,2.353,2.353,2.353h0.474
				h0.307h0.474c0.396,0,0.719,0.322,0.719,0.719v0.73c0,0.396-0.322,0.719-0.719,0.719h-1.39c-0.322,0-0.584-0.262-0.584-0.584
				c0-0.451-0.366-0.817-0.817-0.817s-0.817,0.366-0.817,0.817c0,1.204,0.965,2.187,2.163,2.216v0.701
				c0,0.451,0.366,0.817,0.817,0.817c0.451,0,0.817-0.366,0.817-0.817v-0.708c1.209-0.097,2.163-1.111,2.163-2.344v-0.73
				C60.722,47.148,59.667,46.093,58.37,46.093z"/>
		</g>
	</g>
	<g id="XMLID_3_">
		<g id="XMLID_4_">
			<path id="XMLID_5_" style="fill:#FFFFFF;" d="M70.234,56.439c-0.336-0.761-0.949-1.346-1.724-1.647
				c-0.776-0.301-1.622-0.281-2.384,0.055c-0.004,0.002-0.008,0.004-0.012,0.005l-5.145,2.373c-0.41,0.189-0.589,0.674-0.4,1.084
				c0.189,0.41,0.674,0.589,1.084,0.4l5.138-2.37c0.361-0.157,0.761-0.166,1.128-0.024c0.369,0.143,0.66,0.421,0.82,0.783
				c0.16,0.362,0.169,0.765,0.026,1.134c-0.143,0.369-0.421,0.66-0.783,0.82l-10.529,4.649c-1.66,0.733-3.545,0.69-5.17-0.117
				l-3.854-1.915c-2.061-1.024-4.451-1.079-6.557-0.149l-0.049,0.022l-2.857-6.47l3.972-1.754c1.898-0.838,4.016-0.906,5.964-0.19
				l7.75,2.846c0.692,0.254,1.061,1.029,0.822,1.726c-0.243,0.711-1.02,1.093-1.732,0.853l-5.993-2.027
				c-0.427-0.145-0.891,0.085-1.035,0.512c-0.145,0.427,0.085,0.891,0.512,1.035l5.993,2.027c0.317,0.107,0.64,0.158,0.957,0.158
				c1.248,0,2.418-0.786,2.844-2.03c0.524-1.531-0.286-3.231-1.805-3.789l-7.75-2.846c-0.521-0.191-1.053-0.336-1.589-0.435v-4.515
				c0-4.452,3.622-8.074,8.074-8.074h2.983c4.452,0,8.074,3.622,8.074,8.074v2.129c0,0.451,0.366,0.817,0.817,0.817
				c0.451,0,0.817-0.366,0.817-0.817v-2.129c0-4.715-3.379-8.655-7.842-9.527v-2.46l2.064-3.53c0.117-0.2,0.143-0.439,0.073-0.66
				c-0.07-0.22-0.23-0.401-0.441-0.496l-2.531-1.15c-0.194-0.088-0.414-0.097-0.614-0.025l-1.878,0.676l-1.666-0.666
				c-0.192-0.076-0.405-0.078-0.597-0.004l-2.649,1.022c-0.22,0.085-0.393,0.261-0.474,0.483c-0.081,0.222-0.061,0.468,0.054,0.675
				l2.032,3.665v2.454c-4.506,0.838-7.929,4.798-7.929,9.544v4.358c-1.349-0.013-2.697,0.261-3.964,0.821l-4.002,1.767
				c-0.229-0.343-0.556-0.608-0.949-0.76c-0.504-0.195-1.054-0.183-1.547,0.035l-5.17,2.265c-0.297,0.13-0.489,0.424-0.489,0.748
				v13.873c0,0.284,0.147,0.547,0.389,0.696c0.131,0.08,0.279,0.121,0.428,0.121c0.126,0,0.252-0.029,0.368-0.088l10.036-5.07
				c0.484-0.22,0.856-0.614,1.048-1.111c0.157-0.406,0.18-0.841,0.069-1.254l0.071-0.031c1.66-0.733,3.545-0.691,5.17,0.117
				l3.854,1.915c2.062,1.024,4.451,1.078,6.557,0.148l10.529-4.649c0.761-0.336,1.346-0.948,1.647-1.724S70.57,57.2,70.234,56.439z
				 M59.165,36.938h-0.232H55.95h-0.145v-1.684h3.36L59.165,36.938L59.165,36.938z M54.023,31.011l1.474-0.569l1.656,0.662
				c0.186,0.074,0.392,0.078,0.58,0.01l1.858-0.669l1.405,0.638l-1.482,2.535h-4.044L54.023,31.011z M40.663,63.926
				c-0.013,0.006-0.026,0.012-0.038,0.018l-8.868,4.48v-3.31l2.296-1.128c0.405-0.199,0.572-0.688,0.373-1.093
				c-0.199-0.405-0.688-0.572-1.093-0.373l-1.576,0.774v-6.881l4.683-2.052c0.129-0.057,0.243-0.029,0.299-0.007
				c0.056,0.022,0.159,0.078,0.216,0.206l0.187,0.424c0,0,0,0,0,0s0,0,0,0l3.72,8.426C40.95,63.608,40.86,63.839,40.663,63.926z"/>
		</g>
	</g>
</g>
</svg>
