<?xml version="1.0" encoding="iso-8859-1"?>
<!-- Generator: Adobe Illustrator 19.0.0, SVG Export Plug-In . SVG Version: 6.00 Build 0)  -->
<svg version="1.1" id="Layer_1" xmlns="http://www.w3.org/2000/svg" xmlns:xlink="http://www.w3.org/1999/xlink" x="0px" y="0px"
	 viewBox="0 0 100 100" style="enable-background:new 0 0 100 100;" xml:space="preserve">
<linearGradient id="SVGID_1_" gradientUnits="userSpaceOnUse" x1="1.8496" y1="50.2999" x2="98.3591" y2="50.2999">
	<stop  offset="0" style="stop-color:#B8B8B8"/>
	<stop  offset="1" style="stop-color:#000000"/>
</linearGradient>
<circle style="opacity:0.1;fill:url(#SVGID_1_);" cx="50.104" cy="50.3" r="48.255"/>
<circle style="fill:#F15E6D;" cx="50.104" cy="50.3" r="36.251"/>
<g>
	<g>
		<g>
			<path style="fill:#FFFFFF;" d="M69.005,32.457h-2.48V29.95c0-0.428-0.347-0.775-0.775-0.775c-0.428,0-0.775,0.347-0.775,0.775
				v2.962l-3.238,3.247c-3.267-2.973-7.466-4.603-11.91-4.603c-4.732,0-9.18,1.843-12.526,5.188
				c-3.346,3.346-5.188,7.794-5.188,12.526s1.843,9.18,5.188,12.526c0.52,0.52,1.068,1.004,1.638,1.451l-4.266,4.266
				c-0.302,0.302-0.302,0.793,0,1.096c0.151,0.151,0.35,0.227,0.548,0.227s0.397-0.076,0.548-0.227l4.45-4.45
				c2.837,1.839,6.146,2.826,9.608,2.826c3.478,0,6.802-0.997,9.649-2.853l4.477,4.477c0.151,0.151,0.349,0.227,0.548,0.227
				c0.198,0,0.397-0.076,0.548-0.227c0.302-0.302,0.303-0.793,0-1.096l-4.297-4.297c0.557-0.438,1.092-0.912,1.6-1.42
				c3.346-3.346,5.188-7.794,5.188-12.526c0-2.695-0.59-5.283-1.753-7.692c-0.186-0.385-0.649-0.547-1.034-0.361
				c-0.385,0.186-0.547,0.649-0.361,1.034c1.061,2.198,1.599,4.559,1.599,7.019c0,8.913-7.251,16.165-16.165,16.165
				S33.662,58.184,33.662,49.27c0-8.913,7.251-16.165,16.165-16.165c4.031,0,7.842,1.469,10.816,4.151l-2.719,2.726
				c-2.245-1.962-5.09-3.034-8.097-3.034c-6.794,0-12.322,5.527-12.322,12.322s5.528,12.322,12.322,12.322
				c6.794,0,12.322-5.527,12.322-12.322c0-1.096-0.144-2.183-0.428-3.231c-0.499-1.839-1.425-3.542-2.695-4.967l3.275-3.284
				c0.001-0.001,0.002-0.002,0.003-0.003c0.001-0.001,0.002-0.002,0.003-0.003l3.766-3.776h2.933c0.428,0,0.775-0.347,0.775-0.775
				S69.433,32.457,69.005,32.457z M60.226,46.445c0.248,0.916,0.374,1.867,0.374,2.825c0,5.94-4.832,10.772-10.772,10.772
				S39.055,55.21,39.055,49.27s4.832-10.772,10.772-10.772c2.593,0,5.051,0.912,7.001,2.584l-3.198,3.207
				C52.574,43.481,51.256,43,49.828,43c-3.458,0-6.271,2.813-6.271,6.271s2.813,6.271,6.271,6.271s6.271-2.813,6.271-6.271
				c0-1.472-0.511-2.825-1.363-3.896l3.194-3.203C59.009,43.404,59.798,44.867,60.226,46.445z M49.384,49.643
				c0.151,0.151,0.349,0.226,0.547,0.226c0.199,0,0.397-0.076,0.548-0.228l3.153-3.162c0.575,0.782,0.916,1.747,0.916,2.791
				c0,2.603-2.118,4.721-4.721,4.721s-4.721-2.118-4.721-4.721c0-2.603,2.118-4.721,4.721-4.721c1.002,0,1.931,0.315,2.696,0.849
				l-3.141,3.15C49.08,48.851,49.081,49.341,49.384,49.643z"/>
		</g>
	</g>
	<g>
		<g>
			<circle style="fill:#FFFFFF;" cx="63.59" cy="39.527" r="0.775"/>
		</g>
	</g>
</g>
</svg>
