<?xml version="1.0" encoding="iso-8859-1"?>
<!-- Generator: Adobe Illustrator 19.0.0, SVG Export Plug-In . SVG Version: 6.00 Build 0)  -->
<svg version="1.1" id="Layer_1" xmlns="http://www.w3.org/2000/svg" xmlns:xlink="http://www.w3.org/1999/xlink" x="0px" y="0px"
	 viewBox="0 0 100 100" style="enable-background:new 0 0 100 100;" xml:space="preserve">
<g>
	<g>
		<g>
			<path style="fill:#FFFFFF;" d="M69.005,32.457h-2.48V29.95c0-0.428-0.347-0.775-0.775-0.775c-0.428,0-0.775,0.347-0.775,0.775
				v2.962l-3.238,3.247c-3.267-2.973-7.466-4.603-11.91-4.603c-4.732,0-9.18,1.843-12.526,5.188
				c-3.346,3.346-5.188,7.794-5.188,12.526s1.843,9.18,5.188,12.526c0.52,0.52,1.068,1.004,1.638,1.451l-4.266,4.266
				c-0.302,0.302-0.302,0.793,0,1.096c0.151,0.151,0.35,0.227,0.548,0.227s0.397-0.076,0.548-0.227l4.45-4.45
				c2.837,1.839,6.146,2.826,9.608,2.826c3.478,0,6.802-0.997,9.649-2.853l4.477,4.477c0.151,0.151,0.349,0.227,0.548,0.227
				c0.198,0,0.397-0.076,0.548-0.227c0.302-0.302,0.303-0.793,0-1.096l-4.297-4.297c0.557-0.438,1.092-0.912,1.6-1.42
				c3.346-3.346,5.188-7.794,5.188-12.526c0-2.695-0.59-5.283-1.753-7.692c-0.186-0.385-0.649-0.547-1.034-0.361
				c-0.385,0.186-0.547,0.649-0.361,1.034c1.061,2.198,1.599,4.559,1.599,7.019c0,8.913-7.251,16.165-16.165,16.165
				S33.662,58.184,33.662,49.27c0-8.913,7.251-16.165,16.165-16.165c4.031,0,7.842,1.469,10.816,4.151l-2.719,2.726
				c-2.245-1.962-5.09-3.034-8.097-3.034c-6.794,0-12.322,5.527-12.322,12.322s5.528,12.322,12.322,12.322
				c6.794,0,12.322-5.527,12.322-12.322c0-1.096-0.144-2.183-0.428-3.231c-0.499-1.839-1.425-3.542-2.695-4.967l3.275-3.284
				c0.001-0.001,0.002-0.002,0.003-0.003c0.001-0.001,0.002-0.002,0.003-0.003l3.766-3.776h2.933c0.428,0,0.775-0.347,0.775-0.775
				S69.433,32.457,69.005,32.457z M60.226,46.445c0.248,0.916,0.374,1.867,0.374,2.825c0,5.94-4.832,10.772-10.772,10.772
				S39.055,55.21,39.055,49.27s4.832-10.772,10.772-10.772c2.593,0,5.051,0.912,7.001,2.584l-3.198,3.207
				C52.574,43.481,51.256,43,49.828,43c-3.458,0-6.271,2.813-6.271,6.271s2.813,6.271,6.271,6.271s6.271-2.813,6.271-6.271
				c0-1.472-0.511-2.825-1.363-3.896l3.194-3.203C59.009,43.404,59.798,44.867,60.226,46.445z M49.384,49.643
				c0.151,0.151,0.349,0.226,0.547,0.226c0.199,0,0.397-0.076,0.548-0.228l3.153-3.162c0.575,0.782,0.916,1.747,0.916,2.791
				c0,2.603-2.118,4.721-4.721,4.721s-4.721-2.118-4.721-4.721c0-2.603,2.118-4.721,4.721-4.721c1.002,0,1.931,0.315,2.696,0.849
				l-3.141,3.15C49.08,48.851,49.081,49.341,49.384,49.643z"/>
		</g>
	</g>
	<g>
		<g>
			<circle style="fill:#FFFFFF;" cx="63.59" cy="39.527" r="0.775"/>
		</g>
	</g>
</g>
<linearGradient id="SVGID_1_" gradientUnits="userSpaceOnUse" x1="1.5789" y1="49.6206" x2="98.0884" y2="49.6206">
	<stop  offset="0" style="stop-color:#B8B8B8"/>
	<stop  offset="1" style="stop-color:#000000"/>
</linearGradient>
<circle style="opacity:0.1;fill:url(#SVGID_1_);" cx="49.834" cy="49.621" r="48.255"/>
<circle style="fill:#42BEAD;" cx="49.834" cy="49.621" r="36.251"/>
<g>
	<circle style="fill:#FFFFFF;" cx="32.62" cy="67.013" r="0.78"/>
	<circle style="fill:#FFFFFF;" cx="52.549" cy="47.224" r="0.779"/>
	<path style="fill:#FFFFFF;" d="M60.402,36.382c-0.885,0-1.718,0.345-2.344,0.971c-1.292,1.292-1.292,3.395,0,4.687
		c0.646,0.646,1.495,0.969,2.344,0.969c0.849,0,1.698-0.323,2.344-0.969l0,0c1.292-1.292,1.292-3.395,0-4.687
		C62.12,36.726,61.288,36.382,60.402,36.382z M61.645,40.938c-0.685,0.685-1.8,0.685-2.485,0c-0.685-0.685-0.685-1.8,0-2.485
		c0.332-0.332,0.773-0.515,1.242-0.515s0.911,0.183,1.242,0.515C62.33,39.139,62.33,40.253,61.645,40.938z"/>
	<path style="fill:#FFFFFF;" d="M41.566,60.11c-0.385-0.192-0.852-0.035-1.044,0.35l-0.927,1.863
		c-0.403,0.81-1.214,1.351-2.117,1.413l-1.079,0.074c-0.182,0.012-0.302-0.079-0.358-0.134s-0.147-0.176-0.134-0.358l0.074-1.079
		c0.062-0.903,0.603-1.714,1.413-2.117l1.863-0.927c0.385-0.192,0.542-0.659,0.35-1.044c-0.192-0.385-0.659-0.542-1.044-0.35
		L36.7,58.728c-1.302,0.649-2.173,1.953-2.273,3.405l-0.074,1.079c-0.04,0.582,0.174,1.153,0.587,1.565
		c0.38,0.38,0.894,0.591,1.427,0.591c0.046,0,0.092-0.002,0.138-0.005l1.079-0.074c1.452-0.099,2.756-0.97,3.405-2.273l0.927-1.863
		C42.108,60.769,41.951,60.302,41.566,60.11z"/>
	<path style="fill:#FFFFFF;" d="M71.013,28.832c-0.365-0.36-0.869-0.548-1.38-0.515l-0.725,0.046
		c-6.501,0.415-12.585,3.553-16.692,8.61l-1.707,2.101l-4.466-0.131c-0.008,0-0.015,0-0.023,0c-3.542,0-6.872,1.379-9.377,3.884
		l-4.574,4.574c-0.218,0.218-0.287,0.543-0.176,0.83c0.11,0.287,0.38,0.482,0.687,0.498l9.683,0.498l-0.395,0.486
		c-0.199,0.245-0.23,0.586-0.08,0.863c0.152,0.279,0.311,0.553,0.477,0.823l-2.296,2.726c-0.196,0.233-0.239,0.559-0.108,0.835
		c0.502,1.06,1.167,2.012,1.979,2.83c0.831,0.838,1.803,1.524,2.889,2.038c0.106,0.05,0.22,0.075,0.333,0.075
		c0.175,0,0.349-0.059,0.491-0.174c0.495-0.401,1.065-0.877,1.617-1.338c0.393-0.328,0.795-0.664,1.171-0.973
		c0.224,0.135,0.452,0.266,0.682,0.391c0.117,0.063,0.245,0.095,0.372,0.095c0.17,0,0.338-0.055,0.477-0.164l0.531-0.412l0.5,9.724
		c0.016,0.307,0.211,0.576,0.498,0.687c0.091,0.035,0.185,0.052,0.279,0.052c0.203,0,0.402-0.079,0.551-0.228l4.574-4.574
		c2.505-2.505,3.884-5.835,3.884-9.377v-4.265l1.805-1.4c5.408-4.197,8.702-10.525,9.037-17.363l0.019-0.379
		C71.574,29.692,71.379,29.192,71.013,28.832z M34.409,47.264l3.336-3.336c2.208-2.208,5.143-3.425,8.264-3.428l3.264,0.096
		l-5.795,7.134L34.409,47.264z M46.171,57.196c-0.406,0.339-0.823,0.687-1.21,1.005c-0.748-0.405-1.425-0.911-2.016-1.507
		c-0.573-0.577-1.06-1.235-1.453-1.959l1.681-1.996c0.508,0.682,1.065,1.328,1.666,1.933c0,0,0.001,0.001,0.001,0.001
		c0,0,0,0,0,0.001c0,0,0,0,0.001,0.001c0.666,0.671,1.383,1.286,2.144,1.843C46.717,56.74,46.442,56.97,46.171,57.196z
		 M59.131,53.612c0,3.126-1.217,6.065-3.428,8.276l-3.336,3.336l-0.465-9.059l7.229-5.61V53.612z M69.975,30.507
		c-0.312,6.383-3.387,12.291-8.436,16.209l-12.213,9.477c-1.013-0.592-1.957-1.291-2.821-2.082l4.117-4.117
		c0.304-0.304,0.304-0.797,0-1.101c-0.304-0.304-0.797-0.304-1.101,0l-4.113,4.113c-0.756-0.837-1.426-1.748-1.996-2.723
		l10.013-12.328c3.834-4.72,9.514-7.65,15.583-8.037l0.725-0.046c0.095-0.006,0.159,0.041,0.188,0.07
		c0.029,0.029,0.078,0.091,0.073,0.187L69.975,30.507z"/>
</g>
</svg>
