<?xml version="1.0" encoding="iso-8859-1"?>
<!-- Generator: Adobe Illustrator 19.0.0, SVG Export Plug-In . SVG Version: 6.00 Build 0)  -->
<svg version="1.1" id="Layer_1" xmlns="http://www.w3.org/2000/svg" xmlns:xlink="http://www.w3.org/1999/xlink" x="0px" y="0px"
	 viewBox="0 0 100 100" style="enable-background:new 0 0 100 100;" xml:space="preserve">
<linearGradient id="SVGID_1_" gradientUnits="userSpaceOnUse" x1="1.7866" y1="49.9793" x2="98.2961" y2="49.9793">
	<stop  offset="0" style="stop-color:#B8B8B8"/>
	<stop  offset="1" style="stop-color:#000000"/>
</linearGradient>
<circle style="opacity:0.1;fill:url(#SVGID_1_);" cx="50.041" cy="49.979" r="48.255"/>
<circle style="fill:#4B556F;" cx="50.041" cy="49.979" r="36.251"/>
<g>
	<g>
		<g>
			<path style="fill:#FFFFFF;" d="M54.976,38.261c-1.602-1.58-3.726-2.434-5.977-2.402c-2.166,0.03-4.212,0.895-5.759,2.434
				c-1.548,1.54-2.423,3.58-2.464,5.747c-0.046,2.41,0.951,4.721,2.736,6.341c0.681,0.618,1.072,1.505,1.072,2.432v1.108
				c0,0.715,0.338,1.352,0.861,1.761v2.542c0,1.158,0.942,2.1,2.1,2.1h3.145c1.158,0,2.1-0.942,2.1-2.1v-2.542
				c0.524-0.409,0.861-1.046,0.861-1.761v-1.108c0-0.925,0.395-1.816,1.085-2.444c1.732-1.578,2.725-3.826,2.725-6.167
				C57.462,41.951,56.579,39.841,54.976,38.261z M50.691,58.657h-3.145c-0.239,0-0.434-0.194-0.434-0.434v-2.068h4.012v2.068h0
				C51.125,58.463,50.93,58.657,50.691,58.657z M53.614,49.138c-1.035,0.943-1.628,2.283-1.628,3.675v1.108
				c0,0.313-0.255,0.568-0.568,0.568h-4.6c-0.313,0-0.568-0.255-0.568-0.568v-1.108c0-1.396-0.59-2.733-1.618-3.666
				c-1.428-1.296-2.226-3.146-2.19-5.075c0.068-3.56,3.019-6.497,6.58-6.546c0.032,0,0.064-0.001,0.096-0.001
				c1.767,0,3.428,0.681,4.687,1.923c1.283,1.265,1.989,2.953,1.989,4.754C55.795,46.076,55,47.875,53.614,49.138z"/>
		</g>
	</g>
	<g>
		<g>
			<path style="fill:#FFFFFF;" d="M65.626,52.171l-2.588-4.728v-3.241c0-7.707-6.27-13.978-13.978-13.978
				s-13.978,6.27-13.978,13.978v2.4c0,2.982,0.896,5.834,2.595,8.267v6.88c0,0.46,0.373,0.833,0.833,0.833
				c0.46,0,0.833-0.373,0.833-0.833v-7.147c0-0.176-0.056-0.347-0.159-0.49c-1.594-2.194-2.436-4.791-2.436-7.511v-2.4
				c0-6.788,5.523-12.311,12.311-12.311s12.311,5.523,12.311,12.311v3.454c0,0.14,0.035,0.277,0.102,0.4l2.691,4.915
				c0.203,0.371,0.057,0.693-0.015,0.814c-0.072,0.121-0.284,0.401-0.705,0.401c-0.001,0-0.003,0-0.004,0l-1.232-0.006
				c-0.225-0.002-0.435,0.086-0.592,0.243c-0.157,0.156-0.245,0.369-0.245,0.591v3.719c0,1.987-1.617,3.604-3.604,3.604h-2.501
				c-1.135,0-2.059,0.924-2.059,2.059v6.369L41.88,65.673c-0.42-0.189-0.913-0.001-1.102,0.418c-0.189,0.42-0.001,0.913,0.418,1.102
				l12.502,5.619c0.109,0.049,0.226,0.073,0.342,0.073c0.158,0,0.316-0.045,0.453-0.134c0.237-0.154,0.381-0.417,0.381-0.7v-7.657
				c0-0.216,0.176-0.392,0.392-0.392h2.501c2.906,0,5.27-2.364,5.27-5.27v-2.882l0.395,0.002c0.004,0,0.008,0,0.012,0
				c0.885,0,1.683-0.453,2.137-1.214C66.037,53.874,66.054,52.952,65.626,52.171z"/>
		</g>
	</g>
	<g>
		<g>
			<circle style="fill:#FFFFFF;" cx="38.586" cy="65.011" r="0.833"/>
		</g>
	</g>
</g>
</svg>
