<?xml version="1.0" encoding="iso-8859-1"?>
<!-- Generator: Adobe Illustrator 19.0.0, SVG Export Plug-In . SVG Version: 6.00 Build 0)  -->
<svg version="1.1" id="Layer_1" xmlns="http://www.w3.org/2000/svg" xmlns:xlink="http://www.w3.org/1999/xlink" x="0px" y="0px"
	 viewBox="0 0 239.544 50.598" style="enable-background:new 0 0 239.544 50.598;" xml:space="preserve">
<g>
	<defs>
		<rect id="SVGID_1_" y="0" width="239.544" height="50.598"/>
	</defs>
	<clipPath id="SVGID_2_">
		<use xlink:href="#SVGID_1_"  style="overflow:visible;"/>
	</clipPath>
	<path style="clip-path:url(#SVGID_2_);fill:#00A8DF;" d="M231.922,26.593v20.593h7.622v2.376h-10.088V26.593H231.922z
		 M220.733,40.667l-3.7-9.199l-3.788,9.199H220.733z M221.702,43.043h-9.456l-2.672,6.519h-2.702l10.22-24.065l9.955,24.065h-2.731
		L221.702,43.043z M204.435,49.562h-2.467V26.593h2.467V49.562z M188.459,49.562h-2.468V26.593h3.201
		c5.832,0,8.023,2.811,8.156,5.734c0.14,3.073-1.765,5.63-4.556,6.465l7.411,10.77h-3.024l-8.219-12.336
		c4.1-0.221,6.05-2.351,5.91-4.531c-0.125-1.939-1.877-3.726-5.678-3.726h-0.733V49.562z M178.062,28.969v20.593h-2.466V28.969
		h-5.562v-2.376h14.239l-1.016,2.376H178.062z M167.784,29.761l-1.968,1.31c-0.43-0.771-0.94-1.375-1.527-1.812
		c-0.588-0.437-1.352-0.655-2.29-0.655c-0.98,0-1.836,0.33-2.57,0.989c-0.735,0.661-1.102,1.519-1.102,2.575
		c0,0.792,0.27,1.437,0.808,1.934c0.539,0.498,1.121,0.909,1.747,1.234c0.157,0.081,0.313,0.157,0.47,0.228s0.303,0.138,0.44,0.198
		l1.469,0.641c1.449,0.669,2.697,1.461,3.745,2.376c1.047,0.913,1.571,2.284,1.571,4.112c0,2.011-0.681,3.691-2.042,5.041
		c-1.36,1.351-3,2.026-4.919,2.026c-1.781,0-3.289-0.538-4.521-1.615c-1.235-1.075-2.028-2.507-2.38-4.294l2.408-0.732
		c0.157,1.198,0.637,2.214,1.439,3.047c0.803,0.833,1.801,1.249,2.996,1.249c1.194,0,2.252-0.421,3.171-1.264
		c0.92-0.843,1.381-1.915,1.381-3.215c0-1.299-0.396-2.254-1.189-2.863c-0.794-0.609-1.69-1.147-2.688-1.615
		c-0.039-0.02-0.074-0.035-0.102-0.045c-0.03-0.01-0.065-0.025-0.103-0.046l-1.351-0.639c-1.292-0.59-2.418-1.3-3.377-2.133
		c-0.96-0.833-1.44-2.071-1.44-3.717c0-1.787,0.621-3.209,1.866-4.264c1.243-1.057,2.686-1.585,4.331-1.585
		c1.233,0,2.349,0.31,3.347,0.929c0.999,0.62,1.792,1.499,2.38,2.636V29.761z M138.063,26.593v13.678v0.152v0.152v0.731
		c0,0.245,0.01,0.498,0.03,0.763c0.019,0.588,0.097,1.172,0.235,1.751c0.137,0.579,0.372,1.112,0.704,1.6
		c0.372,0.548,0.861,0.995,1.469,1.34c0.607,0.345,1.233,0.589,1.88,0.73c0.195,0.041,0.386,0.072,0.572,0.092
		c0.187,0.02,0.367,0.031,0.543,0.031c0.138,0,0.274-0.005,0.411-0.016c0.138-0.01,0.275-0.025,0.411-0.045
		c0.666-0.102,1.312-0.325,1.939-0.671c0.627-0.345,1.155-0.781,1.586-1.309c0.431-0.529,0.715-1.112,0.851-1.752
		c0.137-0.64,0.216-1.294,0.236-1.965v-0.609v-0.579v-0.182v-0.183V26.593h2.466v14.379c0,1.259-0.103,2.401-0.308,3.427
		c-0.206,1.025-0.749,2.016-1.63,2.97c-0.764,0.853-1.669,1.497-2.716,1.934c-1.048,0.437-2.13,0.655-3.246,0.655h-0.249
		c-0.088,0-0.182-0.01-0.279-0.03c-0.96-0.061-1.894-0.285-2.805-0.67c-0.91-0.386-1.708-0.924-2.394-1.615
		c-0.959-0.954-1.561-1.975-1.805-3.062c-0.245-1.086-0.367-2.279-0.367-3.579V26.593H138.063z M118.211,47.186h1.792
		c1.35,0.02,2.599-0.116,3.744-0.411c1.146-0.295,2.227-0.939,3.245-1.934c0.92-0.894,1.61-1.92,2.07-3.077
		c0.46-1.158,0.691-2.377,0.691-3.656c0-1.32-0.24-2.579-0.72-3.777c-0.479-1.199-1.199-2.235-2.158-3.108
		c-1.019-0.934-2.091-1.538-3.217-1.812c-1.125-0.275-2.344-0.411-3.655-0.411h-1.792V47.186z M115.744,49.562V26.593h4.171
		c1.664,0.02,3.19,0.203,4.581,0.548c1.39,0.346,2.741,1.097,4.053,2.255c1.272,1.116,2.202,2.426,2.79,3.93
		c0.587,1.502,0.881,3.107,0.881,4.813c0,1.665-0.299,3.224-0.896,4.676c-0.597,1.451-1.503,2.746-2.717,3.883
		c-1.311,1.219-2.662,2.001-4.052,2.346c-1.39,0.345-2.956,0.518-4.7,0.518H115.744z M91.398,49.562V25.618l17.269,18.766V26.593
		h2.467v24.005L93.866,31.864v17.698H91.398z M84.259,0l-20.73,47.996l-5.43-12.509L72.07,3.113C72.727,1.593,73.468,0,76.434,0
		H84.259z M47.119,14.066h4.765l4.19,4.373L47.88,37.408l-5.422-12.552L47.119,14.066z M86.759,49.562h-2.467V26.593h2.467V49.562z"
		/>
	<path style="clip-path:url(#SVGID_2_);fill-rule:evenodd;clip-rule:evenodd;fill:#104D7F;" d="M34.176,14.04H25.01
		c2.28,0.978,2.818,2.054,3.581,3.82l13.866,32.1l5.423-12.552l-8.718-20.18C38.222,15.051,37.124,14.04,34.176,14.04
		 M10.843,29.436h2.161c1.506,0,2.557-0.39,3.155-1.18c0.597-0.78,0.895-2.153,0.895-4.122c0-1.729-0.322-2.988-0.978-3.777
		c-0.659-0.789-1.723-1.187-3.167-1.187h-2.066V29.436z M10.843,44.648h2.592c1.278,0,2.21-0.381,2.807-1.143
		c0.585-0.771,0.884-1.986,0.884-3.653c0-1.958-0.274-3.36-0.837-4.201c-0.561-0.843-1.494-1.269-2.796-1.269h-2.65V44.648z
		 M0,14.028h18.591c2.999,0,5.348,0.787,7.061,2.36c1.651,1.537,2.481,3.798,2.481,6.773c0,3.182-0.964,5.398-2.9,6.658
		c-0.617,0.384-1.66,0.83-3.142,1.34c1.919,0.438,3.382,1.162,4.408,2.171c1.482,1.484,2.223,3.62,2.223,6.408
		c0,3.914-1.33,6.721-3.998,8.427c-1.705,1.081-3.716,1.626-6.034,1.626H0V14.028z M54.097,14.04h-7l15.584,35.92l5.422-12.552
		l-8.738-20.096C58.043,14.274,57.295,14.04,54.097,14.04"/>
</g>
</svg>
