<svg xmlns="http://www.w3.org/2000/svg" width="53" height="49" viewBox="0 0 53 49">
  <metadata><?xpacket begin="﻿" id="W5M0MpCehiHzreSzNTczkc9d"?>
<x:xmpmeta xmlns:x="adobe:ns:meta/" x:xmptk="Adobe XMP Core 5.6-c138 79.159824, 2016/09/14-01:09:01        ">
   <rdf:RDF xmlns:rdf="http://www.w3.org/1999/02/22-rdf-syntax-ns#">
      <rdf:Description rdf:about=""/>
   </rdf:RDF>
</x:xmpmeta>
                                                                                                    
                                                                                                    
                                                                                                    
                                                                                                    
                                                                                                    
                                                                                                    
                                                                                                    
                                                                                                    
                                                                                                    
                                                                                                    
                                                                                                    
                                                                                                    
                                                                                                    
                                                                                                    
                                                                                                    
                                                                                                    
                                                                                                    
                                                                                                    
                                                                                                    
                                                                                                    
                           
<?xpacket end="w"?></metadata>
<defs>
    <style>
      .cls-1 {
        fill: #17aee0;
        fill-rule: evenodd;
      }
    </style>
  </defs>
  <path class="cls-1" d="M22,16.235H17.945a0.934,0.934,0,0,1-.929-0.94V8.713a0.943,0.943,0,0,1,.422-0.787l4.057-2.671a0.92,0.92,0,0,1,.95-0.039,0.941,0.941,0,0,1,.486.826v9.253A0.934,0.934,0,0,1,22,16.235Zm-3.128-1.879h2.2V7.775l-2.2,1.447v5.133Zm7.184,1.879H22a0.934,0.934,0,0,1-.929-0.94V8.713a0.943,0.943,0,0,1,.422-0.787l4.057-2.671a0.92,0.92,0,0,1,.95-0.039,0.941,0.941,0,0,1,.486.826v9.253A0.934,0.934,0,0,1,26.058,16.235Zm-3.128-1.879h2.2V7.775l-2.2,1.447v5.133Zm7.184,1.879H26.058a0.934,0.934,0,0,1-.929-0.94V8.713a0.943,0.943,0,0,1,.422-0.787l4.057-2.671a0.921,0.921,0,0,1,.95-0.039,0.941,0.941,0,0,1,.486.826v9.253A0.934,0.934,0,0,1,30.115,16.235Zm-3.127-1.879h2.2V7.775l-2.2,1.447v5.133Zm6.935,1.879H30.115a0.934,0.934,0,0,1-.929-0.94V0.94A0.935,0.935,0,0,1,30.115,0h3.808a0.935,0.935,0,0,1,.929.94V15.295A0.935,0.935,0,0,1,33.923,16.235Zm-2.879-1.879h1.95V1.879h-1.95V14.355ZM11.509,36.682H0.871A0.876,0.876,0,0,1,0,35.8V28.043a0.876,0.876,0,0,1,.871-0.881H11.509a0.877,0.877,0,0,1,.871.881V35.8A0.876,0.876,0,0,1,11.509,36.682ZM1.743,34.92h8.895V28.925H1.743V34.92Zm1.011,5.548H0.871A0.876,0.876,0,0,1,0,39.586V31.312a0.876,0.876,0,0,1,.871-0.881,0.876,0.876,0,0,1,.871.881v7.393H2.754A0.881,0.881,0,0,1,2.754,40.468Zm9.41,0H7.172a0.881,0.881,0,0,1,0-1.763h4.992A0.881,0.881,0,0,1,12.164,40.468Zm5.881,0H16.583a0.881,0.881,0,0,1,0-1.763h0.59V34.893l-2.67-2.7H11.509a0.881,0.881,0,0,1,0-1.763h3.355a0.866,0.866,0,0,1,.616.258l3.18,3.216a0.886,0.886,0,0,1,.255.623v5.059A0.876,0.876,0,0,1,18.044,40.468ZM14.373,42.7a3.116,3.116,0,1,1,3.081-3.116A3.1,3.1,0,0,1,14.373,42.7Zm0-4.468a1.353,1.353,0,1,0,1.338,1.353A1.347,1.347,0,0,0,14.373,38.234ZM4.963,42.7a3.116,3.116,0,1,1,3.081-3.116A3.1,3.1,0,0,1,4.963,42.7Zm0-4.468A1.353,1.353,0,1,0,6.3,39.586,1.347,1.347,0,0,0,4.963,38.234Zm31.244-4.64a2.981,2.981,0,1,1,2.947-2.98A2.967,2.967,0,0,1,36.207,33.593Zm0-4.2a1.218,1.218,0,1,0,1.2,1.218A1.213,1.213,0,0,0,36.207,29.395Zm3.136,9.543H32.95a0.877,0.877,0,0,1-.872-0.881V35.3a3.456,3.456,0,0,1,3.433-3.471h1.27A3.456,3.456,0,0,1,40.215,35.3v2.755A0.877,0.877,0,0,1,39.343,38.938Zm-5.521-1.763h4.65V35.3a1.7,1.7,0,0,0-1.69-1.708h-1.27a1.7,1.7,0,0,0-1.69,1.708v1.873Zm15.17-3.582a2.981,2.981,0,1,1,2.947-2.98A2.967,2.967,0,0,1,48.992,33.593Zm0-4.2a1.218,1.218,0,1,0,1.2,1.218A1.213,1.213,0,0,0,48.992,29.395Zm3.136,9.543H45.736a0.876,0.876,0,0,1-.871-0.881V35.3A3.456,3.456,0,0,1,48.3,31.831h1.27A3.456,3.456,0,0,1,53,35.3v2.755A0.876,0.876,0,0,1,52.129,38.938Zm-5.521-1.763h4.65V35.3a1.7,1.7,0,0,0-1.69-1.708H48.3a1.7,1.7,0,0,0-1.69,1.708v1.873ZM42.6,35.526a2.98,2.98,0,1,1,2.947-2.98A2.967,2.967,0,0,1,42.6,35.526Zm0-4.2a1.218,1.218,0,1,0,1.2,1.218A1.213,1.213,0,0,0,42.6,31.328Zm3.136,9.9H39.343a0.876,0.876,0,0,1-.872-0.881V37.235A3.456,3.456,0,0,1,41.9,33.764h1.27a3.456,3.456,0,0,1,3.433,3.471v3.114A0.876,0.876,0,0,1,45.736,41.231Zm-5.521-1.763h4.65V37.235a1.7,1.7,0,0,0-1.69-1.709H41.9a1.7,1.7,0,0,0-1.69,1.709v2.233ZM37.06,12.2a0.96,0.96,0,0,1-.587-0.2l-0.018-.014a0.989,0.989,0,0,1-.188-1.376,0.964,0.964,0,0,1,1.36-.19l0.022,0.017a0.989,0.989,0,0,1,.185,1.376A0.966,0.966,0,0,1,37.06,12.2ZM44.9,25.858A0.975,0.975,0,0,1,43.943,25l-0.006-.05a0.971,0.971,0,1,1,1.925-.258l0.007,0.055a0.98,0.98,0,0,1-.838,1.1A0.967,0.967,0,0,1,44.9,25.858ZM44.386,23.21a0.973,0.973,0,0,1-.937-0.727l-0.013-.048a0.983,0.983,0,0,1,.682-1.205,0.97,0.97,0,0,1,1.192.69l0.014,0.054a0.983,0.983,0,0,1-.686,1.2A0.963,0.963,0,0,1,44.386,23.21Zm-0.86-2.556a0.971,0.971,0,0,1-.9-0.6L42.611,20a0.986,0.986,0,0,1,.519-1.286,0.967,0.967,0,0,1,1.272.524l0.021,0.051a0.986,0.986,0,0,1-.522,1.285A0.957,0.957,0,0,1,43.527,20.654Zm-1.187-2.419a0.969,0.969,0,0,1-.84-0.488L41.474,17.7a0.988,0.988,0,0,1,.348-1.343,0.965,0.965,0,0,1,1.329.352l0.027,0.047a0.988,0.988,0,0,1-.35,1.343A0.959,0.959,0,0,1,42.339,18.235ZM40.847,16a0.966,0.966,0,0,1-.768-0.381l-0.032-.041a0.989,0.989,0,0,1,.172-1.378,0.964,0.964,0,0,1,1.363.174l0.033,0.043a0.989,0.989,0,0,1-.173,1.378A0.961,0.961,0,0,1,40.847,16Zm-1.77-2.023a0.963,0.963,0,0,1-.684-0.285l-0.035-.035a0.99,0.99,0,0,1-.011-1.389,0.964,0.964,0,0,1,1.373-.011l0.04,0.04a0.99,0.99,0,0,1,.005,1.389A0.962,0.962,0,0,1,39.077,13.972Zm6,14.557a0.977,0.977,0,0,1-.971-0.982V27.521a0.971,0.971,0,1,1,1.942,0v0.025A0.977,0.977,0,0,1,45.076,28.529Zm-40.434-2.1a0.949,0.949,0,0,1-.1,0,0.979,0.979,0,0,1-.87-1.075l0-.026a0.971,0.971,0,1,1,1.932.2l0,0.024A0.975,0.975,0,0,1,4.642,26.433Zm0.441-2.65a0.97,0.97,0,0,1-.226-0.027,0.983,0.983,0,0,1-.72-1.183l0.012-.052a0.971,0.971,0,0,1,1.17-.727,0.983,0.983,0,0,1,.719,1.183l-0.012.052A0.974,0.974,0,0,1,5.083,23.783Zm0.792-2.595a0.957,0.957,0,0,1-.348-0.066,0.985,0.985,0,0,1-.558-1.269l0.019-.05a0.968,0.968,0,0,1,1.255-.563A0.985,0.985,0,0,1,6.8,20.509l-0.019.049A0.972,0.972,0,0,1,5.875,21.188ZM7,18.724a0.959,0.959,0,0,1-.464-0.12,0.988,0.988,0,0,1-.388-1.332l0.027-.05A0.965,0.965,0,0,1,7.5,16.834a0.988,0.988,0,0,1,.383,1.334l-0.024.043A0.969,0.969,0,0,1,7,18.724Zm1.44-2.292a0.959,0.959,0,0,1-.572-0.189,0.989,0.989,0,0,1-.211-1.372l0.033-.046a0.964,0.964,0,0,1,1.358-.208,0.989,0.989,0,0,1,.206,1.373l-0.029.04A0.966,0.966,0,0,1,8.441,16.431Zm1.726-2.08A0.962,0.962,0,0,1,9.5,14.078a0.99,0.99,0,0,1-.03-1.388l0.039-.041a0.963,0.963,0,0,1,1.373-.024,0.99,0.99,0,0,1,.024,1.388l-0.034.036A0.963,0.963,0,0,1,10.168,14.351Zm1.982-1.833a0.965,0.965,0,0,1-.759-0.369,0.989,0.989,0,0,1,.152-1.38l0.042-.034a0.964,0.964,0,0,1,1.365.155,0.989,0.989,0,0,1-.153,1.38l-0.04.033A0.96,0.96,0,0,1,12.15,12.518Zm2.2-1.553a0.969,0.969,0,0,1-.834-0.477,0.988,0.988,0,0,1,.334-1.347l0.019-.011a0.965,0.965,0,0,1,1.333.333,0.988,0.988,0,0,1-.33,1.348l-0.024.014A0.958,0.958,0,0,1,14.353,10.965Zm23.207,33.5a0.965,0.965,0,0,1-.752-0.36,0.99,0.99,0,0,1,.137-1.382l0.019-.016a0.966,0.966,0,0,1,1.367.142,0.988,0.988,0,0,1-.14,1.38l0,0-0.013.011A0.96,0.96,0,0,1,37.56,44.461ZM23.787,49h-0.05l-0.049,0a0.982,0.982,0,0,1,.1-1.961l0.049,0A0.982,0.982,0,0,1,23.787,49Zm2.426-.023a0.982,0.982,0,0,1-.066-1.962l0.048,0a0.982,0.982,0,0,1,.135,1.959l-0.048,0Zm-4.887-.252a0.96,0.96,0,0,1-.167-0.015L21.109,48.7a0.982,0.982,0,0,1,.337-1.934l0.045,0.008A0.983,0.983,0,0,1,21.326,48.725Zm7.341-.071a0.983,0.983,0,0,1-.183-1.946l0.045-.009a0.972,0.972,0,0,1,1.14.774,0.981,0.981,0,0,1-.766,1.153l-0.05.01A0.962,0.962,0,0,1,28.668,48.654Zm-9.751-.507a0.959,0.959,0,0,1-.283-0.043l-0.046-.014a0.984,0.984,0,0,1-.647-1.225,0.969,0.969,0,0,1,1.211-.655L19.2,46.225a0.984,0.984,0,0,1,.646,1.225A0.973,0.973,0,0,1,18.916,48.147Zm12.149-.117a0.972,0.972,0,0,1-.923-0.678,0.984,0.984,0,0,1,.622-1.238l0.046-.015a0.969,0.969,0,0,1,1.224.629,0.984,0.984,0,0,1-.622,1.238l-0.046.015A0.962,0.962,0,0,1,31.066,48.03Zm-14.471-.756A0.959,0.959,0,0,1,16.2,47.19l-0.049-.022a0.986,0.986,0,0,1-.488-1.3,0.967,0.967,0,0,1,1.284-.494l0.04,0.018a0.986,0.986,0,0,1,.495,1.3A0.971,0.971,0,0,1,16.594,47.274Zm16.775-.162a0.97,0.97,0,0,1-.881-0.567,0.987,0.987,0,0,1,.469-1.305L33,45.22a0.966,0.966,0,0,1,1.291.473A0.986,0.986,0,0,1,33.825,47l-0.045.021A0.959,0.959,0,0,1,33.37,47.113Zm2.175-1.2a0.968,0.968,0,0,1-.823-0.46,0.989,0.989,0,0,1,.306-1.354l0.041-.026a0.965,0.965,0,0,1,1.339.31A0.989,0.989,0,0,1,36.1,45.74l-0.041.026A0.958,0.958,0,0,1,35.545,45.917Zm-21.151.2a0.957,0.957,0,0,1-.494-0.137l-0.028-.017a0.988,0.988,0,0,1-.33-1.348,0.965,0.965,0,0,1,1.333-.334l0.015,0.009a0.988,0.988,0,0,1,.341,1.345A0.969,0.969,0,0,1,14.394,46.119Z"/>
</svg>
