<svg xmlns="http://www.w3.org/2000/svg" xmlns:xlink="http://www.w3.org/1999/xlink" preserveAspectRatio="xMidYMid" width="13" height="13" viewBox="0 0 13 13">
  <defs>
    <style>
      .cls-1 {
        fill: #104d7f;
        fill-rule: evenodd;
      }
    </style>
  </defs>
  <path d="M6.500,-0.000 C2.916,-0.000 -0.000,2.916 -0.000,6.500 C-0.000,10.084 2.916,13.000 6.500,13.000 C10.084,13.000 13.000,10.084 13.000,6.500 C13.000,2.916 10.084,-0.000 6.500,-0.000 ZM1.454,7.203 L2.652,7.203 C2.729,8.452 3.012,9.626 3.470,10.593 C2.396,9.796 1.646,8.587 1.454,7.203 ZM2.652,5.797 L1.454,5.797 C1.646,4.412 2.396,3.204 3.470,2.407 C3.012,3.374 2.729,4.547 2.652,5.797 ZM5.797,11.374 C4.855,10.766 4.202,8.987 4.063,7.203 L5.797,7.203 L5.797,11.374 ZM5.797,5.797 L4.059,5.797 C4.203,3.745 4.960,2.214 5.797,1.646 L5.797,5.797 ZM11.546,5.797 L10.348,5.797 C10.271,4.547 9.988,3.374 9.530,2.407 C10.603,3.204 11.354,4.412 11.546,5.797 ZM7.203,1.626 C8.145,2.234 8.798,4.013 8.937,5.797 L7.203,5.797 L7.203,1.626 ZM7.203,11.354 L7.203,7.203 L8.941,7.203 C8.797,9.255 8.040,10.786 7.203,11.354 ZM9.530,10.593 C9.988,9.626 10.271,8.452 10.348,7.203 L11.546,7.203 C11.354,8.587 10.603,9.796 9.530,10.593 Z" class="cls-1"/>
</svg>
