<svg xmlns="http://www.w3.org/2000/svg" width="65" height="72" viewBox="0 0 65 72">
  <metadata><?xpacket begin="﻿" id="W5M0MpCehiHzreSzNTczkc9d"?>
<x:xmpmeta xmlns:x="adobe:ns:meta/" x:xmptk="Adobe XMP Core 5.6-c138 79.159824, 2016/09/14-01:09:01        ">
   <rdf:RDF xmlns:rdf="http://www.w3.org/1999/02/22-rdf-syntax-ns#">
      <rdf:Description rdf:about=""/>
   </rdf:RDF>
</x:xmpmeta>
                                                                                                    
                                                                                                    
                                                                                                    
                                                                                                    
                                                                                                    
                                                                                                    
                                                                                                    
                                                                                                    
                                                                                                    
                                                                                                    
                                                                                                    
                                                                                                    
                                                                                                    
                                                                                                    
                                                                                                    
                                                                                                    
                                                                                                    
                                                                                                    
                                                                                                    
                                                                                                    
                           
<?xpacket end="w"?></metadata>
<defs>
    <style>
      .cls-1 {
        fill: #fff;
        fill-rule: evenodd;
      }
    </style>
  </defs>
  <path class="cls-1" d="M63.8,69.573H61.79V6.067a1.209,1.209,0,0,0-1.2-1.213H38.117a1.208,1.208,0,0,0-1.2,1.213v5.258H34.506V6.067a1.209,1.209,0,0,0-1.2-1.213H28.087V1.213a1.2,1.2,0,1,0-2.407,0v3.64H20.463a1.208,1.208,0,0,0-1.2,1.213v5.258H15.648a1.208,1.208,0,0,0-1.2,1.214V22.652H4.414a1.209,1.209,0,0,0-1.2,1.213V69.573H1.2A1.214,1.214,0,0,0,1.2,72H63.8A1.213,1.213,0,0,0,63.8,69.573ZM21.667,7.281H32.1v4.045H21.667V7.281ZM17.654,69.573h-0.8V67.551a1.2,1.2,0,1,0-2.407,0v2.022h-0.8V65.528h4.012v4.045Zm8.025-31.146V69.573H20.062V64.315a1.209,1.209,0,0,0-1.2-1.213h-6.42a1.208,1.208,0,0,0-1.2,1.213v5.258H5.617V25.079H25.679V38.427h0Zm1.2-15.775H16.852v-8.9H36.914V37.214H28.087V33.169H31.7a1.213,1.213,0,0,0,0-2.427H28.087V26.7H31.7a1.214,1.214,0,0,0,0-2.427H28.087v-0.4A1.209,1.209,0,0,0,26.883,22.652ZM48.148,69.573H28.087V39.641H48.148V69.573Zm11.234,0H50.556V36.809a1.2,1.2,0,1,0-2.407,0v0.4H45.741v-0.4a1.2,1.2,0,1,0-2.407,0v0.4H39.321V7.281H59.383V69.573h0ZM33.3,67.146a1.209,1.209,0,0,0,1.2-1.213V43.281a1.2,1.2,0,1,0-2.407,0V65.933A1.208,1.208,0,0,0,33.3,67.146Zm4.815,0a1.209,1.209,0,0,0,1.2-1.213V43.281a1.2,1.2,0,1,0-2.407,0V65.933A1.208,1.208,0,0,0,38.117,67.146Zm4.815,0a1.209,1.209,0,0,0,1.2-1.213V43.281a1.2,1.2,0,1,0-2.407,0V65.933A1.208,1.208,0,0,0,42.932,67.146Zm1.6-51.775a1.208,1.208,0,0,0,1.2-1.213V12.54a1.2,1.2,0,1,0-2.407,0v1.618A1.208,1.208,0,0,0,44.537,15.371Zm4.815,0a1.208,1.208,0,0,0,1.2-1.213V12.54a1.2,1.2,0,1,0-2.407,0v1.618A1.208,1.208,0,0,0,49.352,15.371Zm4.815,0a1.208,1.208,0,0,0,1.2-1.213V12.54a1.2,1.2,0,1,0-2.407,0v1.618A1.208,1.208,0,0,0,54.167,15.371Zm-9.63,8.09a1.208,1.208,0,0,0,1.2-1.213V20.629a1.2,1.2,0,1,0-2.407,0v1.618A1.208,1.208,0,0,0,44.537,23.461Zm4.815,0a1.208,1.208,0,0,0,1.2-1.213V20.629a1.2,1.2,0,1,0-2.407,0v1.618A1.208,1.208,0,0,0,49.352,23.461Zm4.815,0a1.208,1.208,0,0,0,1.2-1.213V20.629a1.2,1.2,0,1,0-2.407,0v1.618A1.208,1.208,0,0,0,54.167,23.461Zm-9.63,8.09a1.208,1.208,0,0,0,1.2-1.213V28.719a1.2,1.2,0,1,0-2.407,0v1.618A1.209,1.209,0,0,0,44.537,31.551Zm4.815,0a1.208,1.208,0,0,0,1.2-1.213V28.719a1.2,1.2,0,1,0-2.407,0v1.618A1.209,1.209,0,0,0,49.352,31.551Zm4.815,0a1.208,1.208,0,0,0,1.2-1.213V28.719a1.2,1.2,0,1,0-2.407,0v1.618A1.209,1.209,0,0,0,54.167,31.551ZM10.833,34.787a1.208,1.208,0,0,0,1.2-1.213V31.955a1.2,1.2,0,1,0-2.407,0v1.618A1.209,1.209,0,0,0,10.833,34.787Zm4.815,0a1.208,1.208,0,0,0,1.2-1.213V31.955a1.2,1.2,0,1,0-2.407,0v1.618A1.208,1.208,0,0,0,15.648,34.787Zm4.815,0a1.208,1.208,0,0,0,1.2-1.213V31.955a1.2,1.2,0,1,0-2.407,0v1.618A1.208,1.208,0,0,0,20.463,34.787Zm-9.63,8.09a1.208,1.208,0,0,0,1.2-1.213V40.045a1.2,1.2,0,1,0-2.407,0v1.618A1.209,1.209,0,0,0,10.833,42.876Zm4.815,0a1.208,1.208,0,0,0,1.2-1.213V40.045a1.2,1.2,0,1,0-2.407,0v1.618A1.209,1.209,0,0,0,15.648,42.876Zm4.815,0a1.208,1.208,0,0,0,1.2-1.213V40.045a1.2,1.2,0,1,0-2.407,0v1.618A1.209,1.209,0,0,0,20.463,42.876Zm-9.63,8.09a1.208,1.208,0,0,0,1.2-1.213V48.135a1.2,1.2,0,1,0-2.407,0v1.618A1.209,1.209,0,0,0,10.833,50.966Zm4.815,0a1.208,1.208,0,0,0,1.2-1.213V48.135a1.2,1.2,0,1,0-2.407,0v1.618A1.208,1.208,0,0,0,15.648,50.966Zm4.815,0a1.208,1.208,0,0,0,1.2-1.213V48.135a1.2,1.2,0,1,0-2.407,0v1.618A1.208,1.208,0,0,0,20.463,50.966Zm-9.63,8.09a1.208,1.208,0,0,0,1.2-1.213V56.225a1.2,1.2,0,1,0-2.407,0v1.618A1.209,1.209,0,0,0,10.833,59.056Zm4.815,0a1.208,1.208,0,0,0,1.2-1.213V56.225a1.2,1.2,0,1,0-2.407,0v1.618A1.208,1.208,0,0,0,15.648,59.056Zm4.815,0a1.208,1.208,0,0,0,1.2-1.213V56.225a1.2,1.2,0,1,0-2.407,0v1.618A1.208,1.208,0,0,0,20.463,59.056Zm33.7-19.416a1.209,1.209,0,0,0,1.2-1.214V36.809a1.2,1.2,0,1,0-2.407,0v1.618A1.209,1.209,0,0,0,54.167,39.641Zm0,8.09a1.208,1.208,0,0,0,1.2-1.213V44.9a1.2,1.2,0,1,0-2.407,0v1.618A1.209,1.209,0,0,0,54.167,47.73Zm0,8.09a1.208,1.208,0,0,0,1.2-1.213V52.989a1.2,1.2,0,1,0-2.407,0v1.618A1.209,1.209,0,0,0,54.167,55.82Zm0,8.09a1.208,1.208,0,0,0,1.2-1.213V61.079a1.2,1.2,0,1,0-2.407,0V62.7A1.209,1.209,0,0,0,54.167,63.91ZM32.9,19.011A1.208,1.208,0,0,0,31.7,17.8h-9.63a1.213,1.213,0,0,0,0,2.427H31.7A1.208,1.208,0,0,0,32.9,19.011Z"/>
</svg>
